<?xml version="1.0" encoding="utf-8"?>
<!-- Generator: Adobe Illustrator 19.0.0, SVG Export Plug-In . SVG Version: 6.00 Build 0)  -->
<svg version="1.1" id="Layer_1" xmlns="http://www.w3.org/2000/svg" xmlns:xlink="http://www.w3.org/1999/xlink" x="0px" y="0px"
	 viewBox="0 0 100 100" style="enable-background:new 0 0 100 100;" xml:space="preserve">
<style type="text/css">
	.st0{fill:#0D3654;}
	.st1{fill:#0F304D;}
	.st2{fill:#24793C;}
	.st3{clip-path:url(#XMLID_140_);fill:url(#XMLID_141_);}
	.st4{clip-path:url(#XMLID_142_);fill:url(#XMLID_143_);}
	.st5{clip-path:url(#XMLID_144_);fill:url(#XMLID_145_);}
	.st6{clip-path:url(#XMLID_146_);fill:url(#XMLID_147_);}
	.st7{clip-path:url(#XMLID_148_);fill:url(#XMLID_149_);}
	.st8{clip-path:url(#XMLID_150_);fill:url(#XMLID_151_);}
	.st9{fill:#13A54C;}
	.st10{fill:none;stroke:#22211F;stroke-width:1.874;stroke-miterlimit:10;}
	.st11{fill:#241F20;}
</style>
<g>
	<g>
		<path id="XMLID_138_" class="st0" d="M40.1,31.9c0,0-0.3,0-0.4,0c-0.4,0.1-1.3,0.4-1.7,1.4l-2.3,3.1c0,0-1.7,2.6-3.1,3.5
			c0,0-1.8,1.3-3.2,2c0,0-1.5,0.8-1.7,3.3v2.1c0,0,0,1,0.7,1.6c0.3,0.3,0.5,0.4,0.7,0.6c0,0,0.6,0.2,1.4,0.9l0.2-1.3l-0.8-0.1
			c0,0-0.6,0-1-0.5c-0.3-0.3-0.4-0.6-0.4-0.9v-2.1l0.1-0.7c0,0,0.3-1.1,0.6-1.3c0,0,0.2-0.6,2.6-1.8c0,0,2-1.1,2.9-2.3
			c0,0,1.1-1.2,2.2-2.9c0,0,1.8-2.5,2.1-3c0,0,0.1-0.1,0.4-0.2c0,0,0.3,0,0.5,0L40.1,31.9z"/>
		<path class="st0" d="M33.8,44.3c-2.3,0-4.2,2-4.2,4.4c0,1,0.3,1.1,0.8,1.6c0.1,0.1,0.3,0.2,0.4,0.4c0.7,0.8,1.8,2.3,2.9,2.4h0
			c0,0,0.1,0,0.1,0h0c0,0,0.1,0,0.1,0c0,0,0,0,0,0h0c1.3-0.1,2.4-1.7,3.1-2.6c0-0.1,0.1-0.1,0.1-0.2c0.5-0.6,0.8-0.6,0.8-1.6
			C38.1,46.2,36.2,44.3,33.8,44.3 M33.8,51.4c-1.1,0-2-1-2-2.3c0-1.2,0.9-2.3,2-2.3c1.1,0,2,1,2,2.3C35.9,50.4,35,51.4,33.8,51.4"/>
		<path class="st1" d="M33.8,45.4c-2,0-3.5,1.7-3.5,3.8c0,0.3,0,0.7,0.1,1c0.4,1.6,1.7,2.8,3.3,2.8h0c0,0,0.1,0,0.1,0h0
			c0,0,0.1,0,0.1,0h0h0c1.6-0.1,2.9-1.2,3.3-2.8c0.1-0.3,0.1-0.7,0.1-1C37.4,47.1,35.8,45.4,33.8,45.4 M33.8,51.5c-1.1,0-2-1-2-2.3
			c0-1.2,0.9-2.3,2-2.3c1.1,0,2,1,2,2.3C35.9,50.5,35,51.5,33.8,51.5"/>
		<polygon id="XMLID_133_" class="st0" points="37.5,48.6 51,48.6 54.5,49.2 53.8,49.9 37.5,49.9 		"/>
		<polygon id="XMLID_132_" class="st0" points="39.7,31.9 54.5,31.9 54.5,32.6 51.9,33 39.7,33 		"/>
		<path id="XMLID_131_" class="st2" d="M36.2,43.7h1.2l2.5-6.3h0.2L42,42l1.1,0l-2.3-5.9c0,0-0.7-1-1.3-0.1L36.2,43.7z"/>
		<path id="XMLID_130_" class="st2" d="M38.4,42.4h5.4c0,0,0.5,0,0.3-0.3l0-6.5h1.2v6.7c0,0,0.1,1.2-1.1,1.2l-6.4,0L38.4,42.4z"/>
		<g>
			<defs>
				<path id="XMLID_128_" d="M65,44.9c-0.4,0-0.7,0.4-0.7,0.8c0,0.4,0.3,0.8,0.7,0.8h4.5c0.4,0,0.7-0.3,0.7-0.7
					c0-0.5-0.3-0.8-0.7-0.8H65z"/>
			</defs>
			<clipPath id="XMLID_140_">
				<use xlink:href="#XMLID_128_"  style="overflow:visible;"/>
			</clipPath>
			
				<linearGradient id="XMLID_141_" gradientUnits="userSpaceOnUse" x1="-247.594" y1="462.4217" x2="-247.3666" y2="462.4217" gradientTransform="matrix(25.9485 0 0 25.9485 6489.0527 -11953.4951)">
				<stop  offset="0" style="stop-color:#0B3451"/>
				<stop  offset="0.9951" style="stop-color:#0FA44D"/>
				<stop  offset="1" style="stop-color:#0FA44D"/>
			</linearGradient>
			<rect id="XMLID_129_" x="64.3" y="44.9" class="st3" width="5.9" height="1.6"/>
		</g>
		<g>
			<defs>
				<path id="XMLID_126_" d="M68.1,37.5c-0.4,0-0.7,0.4-0.7,0.8c0,0.4,0.3,0.8,0.7,0.8h2.2c0.4,0,0.7-0.3,0.7-0.7
					c0-0.5-0.3-0.8-0.7-0.8H68.1z"/>
			</defs>
			<clipPath id="XMLID_142_">
				<use xlink:href="#XMLID_126_"  style="overflow:visible;"/>
			</clipPath>
			
				<linearGradient id="XMLID_143_" gradientUnits="userSpaceOnUse" x1="-249.2996" y1="458.4412" x2="-249.0722" y2="458.4412" gradientTransform="matrix(15.7335 0 0 15.7335 3989.8052 -7174.5605)">
				<stop  offset="0" style="stop-color:#0B3451"/>
				<stop  offset="0.9951" style="stop-color:#0FA44D"/>
				<stop  offset="1" style="stop-color:#0FA44D"/>
			</linearGradient>
			<rect id="XMLID_127_" x="67.5" y="37.5" class="st4" width="3.6" height="1.6"/>
		</g>
		<g>
			<defs>
				<path id="XMLID_124_" d="M65.3,34.4c-0.4,0-0.7,0.4-0.7,0.8c0,0.4,0.3,0.8,0.7,0.8h6.3c0.4,0,0.7-0.3,0.7-0.7
					c0-0.5-0.3-0.8-0.7-0.8H65.3z"/>
			</defs>
			<clipPath id="XMLID_144_">
				<use xlink:href="#XMLID_124_"  style="overflow:visible;"/>
			</clipPath>
			
				<linearGradient id="XMLID_145_" gradientUnits="userSpaceOnUse" x1="-247.2506" y1="465.4738" x2="-247.0232" y2="465.4738" gradientTransform="matrix(33.8628 0 0 33.8628 8437.2422 -15727.0156)">
				<stop  offset="0" style="stop-color:#0B3451"/>
				<stop  offset="0.9951" style="stop-color:#0FA44D"/>
				<stop  offset="1" style="stop-color:#0FA44D"/>
			</linearGradient>
			<rect id="XMLID_125_" x="64.6" y="34.4" class="st5" width="7.7" height="1.6"/>
		</g>
		<path id="XMLID_123_" class="st2" d="M55.8,42.7l2.2,0.9c-0.3,1.5-0.9,2.7-1.7,3.4c-0.8,0.7-1.8,1.1-3,1.1c-1.5,0-2.7-0.6-3.7-1.9
			c-1-1.3-1.5-3-1.5-5.2c0-2.3,0.5-4.1,1.5-5.4c1-1.3,2.3-1.9,3.8-1.9c1.4,0,2.5,0.5,3.4,1.5c0.5,0.6,0.9,1.5,1.2,2.6l-2.3,0.7
			c-0.1-0.7-0.4-1.3-0.8-1.7C54.5,36.2,54,36,53.4,36c-0.8,0-1.5,0.4-2,1.1c-0.5,0.7-0.8,1.9-0.8,3.6c0,1.8,0.3,3,0.8,3.8
			c0.5,0.7,1.2,1.1,2,1.1c0.6,0,1.1-0.2,1.6-0.7C55.3,44.4,55.6,43.7,55.8,42.7"/>
		<g>
			<defs>
				<path id="XMLID_121_" d="M59.2,41.2c-0.1,0-0.2,0.1-0.2,0.3v0.9c0,0.2,0.1,0.3,0.2,0.3h4.5c0.3,0,0.6-0.3,0.6-0.7
					c0-0.5-0.3-0.8-0.6-0.8H59.2z"/>
			</defs>
			<clipPath id="XMLID_146_">
				<use xlink:href="#XMLID_121_"  style="overflow:visible;"/>
			</clipPath>
			
				<linearGradient id="XMLID_147_" gradientUnits="userSpaceOnUse" x1="-246.9688" y1="462.1387" x2="-246.7414" y2="462.1387" gradientTransform="matrix(23.7076 0 0 23.7076 5913.9624 -10914.1875)">
				<stop  offset="0" style="stop-color:#0B3451"/>
				<stop  offset="0.9951" style="stop-color:#0FA44D"/>
				<stop  offset="1" style="stop-color:#0FA44D"/>
			</linearGradient>
			<rect id="XMLID_122_" x="58.9" y="41.2" class="st6" width="5.4" height="1.5"/>
		</g>
		<g>
			<defs>
				<path id="XMLID_119_" d="M65.8,41.2c-0.3,0-0.6,0.3-0.6,0.8c0,0.4,0.3,0.8,0.6,0.8H70c0.3,0,0.6-0.3,0.6-0.7
					c0-0.5-0.3-0.8-0.6-0.8H65.8z"/>
			</defs>
			<clipPath id="XMLID_148_">
				<use xlink:href="#XMLID_119_"  style="overflow:visible;"/>
			</clipPath>
			
				<linearGradient id="XMLID_149_" gradientUnits="userSpaceOnUse" x1="-247.8665" y1="462.1423" x2="-247.639" y2="462.1423" gradientTransform="matrix(23.7173 0 0 23.7173 5943.9351 -10918.791)">
				<stop  offset="0" style="stop-color:#0B3451"/>
				<stop  offset="0.9951" style="stop-color:#0FA44D"/>
				<stop  offset="1" style="stop-color:#0FA44D"/>
			</linearGradient>
			<rect id="XMLID_120_" x="65.2" y="41.2" class="st7" width="5.4" height="1.5"/>
		</g>
		<g>
			<defs>
				<path id="XMLID_117_" d="M53.7,31.9C53.6,31.9,53.6,31.9,53.7,31.9c-4.3,0-7.7,4.1-7.7,9c0,5,3.4,9,7.7,9c0.3,0,0.6,0,0.9-0.1
					h10.2c0.4,0,0.7-0.4,0.7-0.8c0-0.4-0.3-0.8-0.7-0.8H58c0.6-0.5,1.1-1.1,1.6-1.8h2.1c0.4,0,0.7-0.4,0.7-0.8
					c0-0.4-0.3-0.8-0.7-0.8h-2.1c-1.2,2.4-3.3,3.9-5.8,3.9c-3.7,0-6.8-3.6-6.8-8c0-4.4,3-8,6.8-8c3.2,0,5.9,2.7,6.6,6.3
					c0.5,0,0.8,0,0.8,0h4.7c0.4,0,0.7-0.4,0.7-0.8c0-0.4-0.3-0.8-0.7-0.8h-5.1c-0.2-0.5-0.4-1-0.6-1.5h2.3c0.4,0,0.7-0.4,0.7-0.8
					c0-0.4-0.3-0.8-0.7-0.8h-3.3c-0.3-0.4-0.7-0.7-1.1-1.1h6.8c0.4,0,0.7-0.4,0.7-0.8c0-0.4-0.3-0.8-0.7-0.8H53.7z"/>
			</defs>
			<clipPath id="XMLID_150_">
				<use xlink:href="#XMLID_117_"  style="overflow:visible;"/>
			</clipPath>
			
				<linearGradient id="XMLID_151_" gradientUnits="userSpaceOnUse" x1="-245.7665" y1="468.7283" x2="-245.5391" y2="468.7283" gradientTransform="matrix(90.8433 0 0 90.8433 22372.1582 -42539.9063)">
				<stop  offset="0" style="stop-color:#0B3451"/>
				<stop  offset="0.9951" style="stop-color:#0FA44D"/>
				<stop  offset="1" style="stop-color:#0FA44D"/>
			</linearGradient>
			<rect id="XMLID_118_" x="45.9" y="31.9" class="st8" width="20.7" height="18.1"/>
		</g>
	</g>
	<g>
		<g>
			<path class="st9" d="M0.4,61.6C0.5,61.6,0.5,61.6,0.4,61.6c0.6-1.6,1.4-4,1.9-5.6c0.2,0,0.6,0,1.2,0c0.5,1.6,1.2,4,1.7,5.6l0.5,0
				c0,0.3,0,0.5,0,0.8H4.7H3.3c0-0.3,0-0.6,0-0.8l0.4,0c0,0,0,0,0,0c0-0.1-0.1-0.5-0.2-0.6c0,0,0,0-0.1,0l-1.7,0
				c0,0.2-0.1,0.5-0.2,0.7l0.5,0c0,0.3,0,0.5,0,0.8H0.9H0c0-0.3,0-0.6,0-0.8L0.4,61.6z M2.7,57.9c-0.2,0.7-0.4,1.5-0.6,2.2
				c0,0,0,0.1,0,0.1h1.3C3.2,59.4,2.9,58.6,2.7,57.9L2.7,57.9z"/>
			<path id="XMLID_114_" class="st9" d="M6.1,61.7l0.5,0c0,0,0,0,0,0v-4.9l-0.6,0c0-0.3,0-0.6,0-0.8c0.5-0.1,2-0.3,2.1-0.3
				c0,0,0,0,0,0c0,1.6,0,4.2,0,6l0.5,0c0,0.3,0,0.5,0,0.8H7.3c-0.4,0-0.9,0-1.2,0C6.1,62.2,6.1,61.9,6.1,61.7"/>
			<path class="st9" d="M8.9,59.2c0-0.3,0-0.6,0-0.8c0.5,0,2-0.3,2-0.3c0,0,0,0,0,0c0,1.1,0,2.6,0,3.5l0.5,0v0.8h-1.2
				c-0.4,0-0.9,0-1.2,0c0-0.3,0-0.6,0-0.8l0.5,0c0,0,0,0,0,0v-2.4L8.9,59.2z M11,56.6c0,0.5-0.4,0.9-0.8,0.9c-0.4,0-0.8-0.4-0.8-0.9
				c0-0.4,0.3-0.8,0.8-0.8C10.7,55.8,11,56.2,11,56.6"/>
			<path class="st9" d="M11.8,59.2c0-0.3,0-0.6,0-0.8c0.5-0.1,2.1-0.3,2.1-0.3c0,0,0,0,0,0c0,1.1,0,2.6,0,3.7c0,0.6-0.1,0.9-0.3,1.4
				c-0.3,0.8-0.8,1.5-1.4,1.8c-0.3,0-0.9-0.5-0.9-0.8c0.3-0.2,0.7-0.4,0.8-0.7c0.2-0.4,0.3-0.8,0.3-1.9l0-2.5L11.8,59.2z M13.8,56.6
				c0,0.5-0.4,0.9-0.9,0.9c-0.4,0-0.8-0.4-0.8-0.9c0-0.4,0.3-0.8,0.8-0.8C13.6,55.8,13.8,56.2,13.8,56.6"/>
			<path class="st9" d="M17.1,62.1c-0.5,0.3-1,0.4-1.3,0.4c-0.5,0-1.2-0.5-1.2-1.1c0-0.5,0.6-1.5,2-1.5h0.4c0-0.5-0.1-0.8-0.5-0.8
				c-0.3,0-0.8,0.3-1.1,0.5c-0.2-0.2-0.3-0.5-0.5-0.7c0.7-0.6,1.3-1,2.2-1c0.7,0,1.4,0.6,1.4,1.5c0,0.6,0,1.6,0,2c0,0.1,0,0.1,0,0.1
				l0.5,0c0,0.3,0,0.5,0,0.8c-0.1,0.1-0.8,0.2-1.5,0.2C17.4,62.5,17.3,62.3,17.1,62.1L17.1,62.1z M16.5,61.6c0.2,0,0.5-0.1,0.6-0.2
				c0,0,0,0,0-0.1v-0.7c-0.1,0-0.1,0-0.2,0c-0.6,0-0.9,0.3-0.9,0.6C16.1,61.5,16.3,61.6,16.5,61.6"/>
			<path id="XMLID_107_" class="st9" d="M19.4,61.7l0.4,0c0,0,0,0,0,0v-4.9l-0.6,0c0-0.3,0-0.6,0-0.8c0.5-0.1,1.9-0.3,2-0.3
				c0,0,0,0,0,0c0,0.8,0,1.9,0,2.9l0,0c0.9-0.5,1-0.5,1.4-0.5c0.4,0,0.9,0.4,1.1,0.8c0.1,0.2,0.1,0.4,0.1,0.7c0,0.6,0,1.4,0,2.1
				l0.5,0c0,0.3,0,0.6,0,0.8h-1.1c-0.4,0-0.8,0-1.2,0c0-0.3,0-0.5,0-0.8l0.3,0c0,0,0,0,0,0c0-0.4,0-1,0-1.4c0-0.4,0-0.6-0.1-0.8
				c-0.1-0.1-0.2-0.2-0.4-0.2c-0.2,0-0.5,0.1-0.7,0.3c0,0.6,0,1.6,0,2.2l0.4,0c0,0.3,0,0.5,0,0.8h-1.2c-0.4,0-0.8,0-1.2,0
				C19.4,62.2,19.4,61.9,19.4,61.7"/>
			<path class="st9" d="M27.3,62.1c-0.5,0.3-1,0.4-1.3,0.4c-0.5,0-1.2-0.5-1.2-1.1c0-0.5,0.6-1.5,2-1.5h0.4c0-0.5-0.1-0.8-0.5-0.8
				c-0.3,0-0.8,0.3-1.1,0.5c-0.2-0.2-0.3-0.5-0.5-0.7c0.7-0.6,1.3-1,2.2-1c0.7,0,1.4,0.6,1.4,1.5c0,0.6,0,1.6,0,2c0,0.1,0,0.1,0,0.1
				l0.5,0c0,0.3,0,0.5,0,0.8c-0.1,0.1-0.8,0.2-1.5,0.2C27.6,62.5,27.5,62.3,27.3,62.1L27.3,62.1z M26.6,61.6c0.2,0,0.5-0.1,0.6-0.2
				c0,0,0,0,0-0.1v-0.7c-0.1,0-0.1,0-0.2,0c-0.6,0-0.9,0.3-0.9,0.6C26.2,61.5,26.5,61.6,26.6,61.6"/>
			<path id="XMLID_104_" class="st9" d="M29.5,59.2c0-0.3,0-0.6,0-0.8c0.5,0,1.8-0.3,1.8-0.3c0,0,0,0,0,0c0,0.2,0.1,0.4,0.1,0.6l0,0
				c0.9-0.6,1.1-0.7,1.5-0.7c0.4,0,0.8,0.4,0.9,0.7c0.2,0.3,0.2,0.6,0.2,0.9c0,0.6,0,1.4,0,2l0.5,0c0,0.3,0,0.6,0,0.8h-1.2
				c-0.4,0-0.8,0-1.1,0c0-0.3,0-0.6,0-0.8l0.4,0c0,0,0,0,0,0c0-0.4,0-0.9,0-1.3c0-0.5,0-0.7-0.1-0.8c-0.1-0.2-0.2-0.2-0.3-0.2
				c-0.2,0-0.5,0.2-0.7,0.3c0,0.6,0,1.5,0,2.1l0.4,0c0,0.3,0,0.5,0,0.8h-1.1c-0.4,0-0.8,0-1.2,0c0-0.3,0-0.6,0-0.8l0.4,0
				c0,0,0,0,0,0v-2.4L29.5,59.2z"/>
			<path id="XMLID_103_" class="st9" d="M38.5,56.8c0.6-0.5,1.4-0.8,2.2-0.8c0.6,0,1,0.1,1.2,0.1c0.1,0.7,0.1,1.3,0.1,2
				c-0.3,0-0.6,0.1-0.9,0.1l-0.2-1c0,0,0-0.1-0.1-0.1c-0.1-0.1-0.2-0.1-0.4-0.1c-0.3,0-0.6,0.1-0.9,0.4c-0.4,0.4-0.6,1.1-0.6,1.9
				c0,0.8,0.2,1.4,0.5,1.7c0.3,0.3,0.7,0.4,1.1,0.4c0.4,0,1.1-0.1,1.4-0.3c0.1,0.3,0.1,0.6,0.2,0.9c-0.6,0.2-1.4,0.4-1.9,0.4
				c-0.7,0-1.4-0.2-1.9-0.6c-0.6-0.5-1-1.3-1-2.3C37.3,58.3,37.8,57.3,38.5,56.8"/>
			<path class="st9" d="M43.3,62.1c-0.4-0.4-0.7-0.9-0.7-1.7c0-0.8,0.3-1.5,0.9-1.9c0.4-0.3,0.9-0.5,1.5-0.5c0.5,0,0.9,0.1,1.2,0.4
				c0.5,0.3,0.8,0.9,0.8,1.8c0,0.9-0.4,1.6-1,2c-0.4,0.2-0.8,0.4-1.3,0.4C44.2,62.6,43.7,62.4,43.3,62.1 M45.2,61.6
				c0.2-0.3,0.2-0.6,0.2-1.3c0-0.6-0.1-0.9-0.2-1.1c-0.1-0.2-0.3-0.3-0.4-0.3c-0.2,0-0.3,0.1-0.4,0.2c-0.1,0.2-0.2,0.6-0.2,1.2
				c0,0.7,0.1,1.1,0.2,1.3c0.1,0.2,0.3,0.3,0.4,0.3C45,61.8,45.1,61.8,45.2,61.6"/>
			<path id="XMLID_100_" class="st9" d="M52.4,62.4c-0.1,0-0.9,0.2-1.5,0.2c-0.1-0.1-0.3-0.3-0.4-0.5h0c-0.7,0.5-0.9,0.5-1.3,0.5
				c-0.6,0-1.2-0.8-1.2-1.4c0-0.7,0-1.5,0-2.2l-0.4,0c0-0.3,0-0.5,0-0.8c0.4,0,1.7-0.1,1.8-0.1c0,0,0,0,0,0c0,0.7,0,1.5,0,2.3
				c0,0.3,0,0.6,0.1,0.8c0.1,0.2,0.2,0.2,0.4,0.2c0.2,0,0.4-0.1,0.5-0.2c0-0.7,0-1.6,0-2.2l-0.4,0c0-0.3,0-0.6,0-0.8
				c0.3,0,1.8,0,1.9,0c0,0,0,0,0,0c0,1,0,2.2,0,3.3c0,0,0,0.1,0,0.1l0.5,0C52.4,61.8,52.4,62.1,52.4,62.4"/>
			<path id="XMLID_99_" class="st9" d="M52.8,61.7l0.4,0c0,0,0,0,0,0v-2.5l-0.5,0c0-0.3,0-0.5,0-0.8c0.4,0,1.8-0.3,1.8-0.3
				c0,0,0,0,0,0c0,0.4,0.1,0.8,0.1,1.3l0.1,0c0.6-1.2,0.8-1.3,1.2-1.3c0.2,0,0.5,0.1,0.7,0.1c0,0.5-0.3,1.3-0.4,1.4
				c-0.1,0-0.4-0.1-0.6-0.1c-0.1,0-0.2,0-0.3,0.1c-0.2,0.1-0.3,0.3-0.5,0.7c-0.1,0.2-0.1,0.5-0.1,0.8v0.5l0.7,0c0,0.3,0,0.5,0,0.8
				h-1.4c-0.4,0-0.9,0-1.3,0C52.8,62.2,52.8,61.9,52.8,61.7"/>
			<path class="st9" d="M56.9,59.2c0-0.3,0-0.6,0-0.8c0.5,0,2-0.3,2-0.3c0,0,0,0,0,0c0,1.1,0,2.6,0,3.5l0.5,0v0.8h-1.3
				c-0.4,0-0.9,0-1.2,0c0-0.3,0-0.6,0-0.8l0.5,0c0,0,0,0,0,0v-2.4L56.9,59.2z M58.9,56.6c0,0.5-0.4,0.9-0.9,0.9
				c-0.4,0-0.8-0.4-0.8-0.9c0-0.4,0.3-0.8,0.8-0.8C58.6,55.8,58.9,56.2,58.9,56.6"/>
			<path class="st9" d="M62.1,58.1c0.6,0,1,0.2,1.2,0.5c0.3,0.4,0.5,0.9,0.5,1.5c0,0.1-0.4,0.6-0.5,0.6c-0.2,0-1.2,0-2,0
				c0,0.3,0.1,0.5,0.2,0.6c0.2,0.2,0.4,0.2,0.7,0.2c0.4,0,1-0.2,1.3-0.3c0.1,0.3,0.1,0.6,0.2,0.8c-0.5,0.3-1.3,0.5-1.8,0.5
				c-1.2,0-2.1-0.6-2.1-2C59.8,59.2,60.8,58.1,62.1,58.1 M61.5,59.1c-0.1,0.2-0.2,0.4-0.2,0.8c0.3,0,0.8,0,1,0c0.1,0,0.1,0,0.1-0.1
				c0-0.2,0-0.5-0.1-0.6c-0.1-0.2-0.2-0.3-0.4-0.3C61.8,58.9,61.6,58.9,61.5,59.1"/>
			<path id="XMLID_94_" class="st9" d="M64.4,61.7l0.4,0c0,0,0,0,0,0v-2.5l-0.5,0c0-0.3,0-0.5,0-0.8c0.4,0,1.8-0.3,1.8-0.3
				c0,0,0,0,0,0c0,0.4,0.1,0.8,0.1,1.3l0.1,0c0.6-1.2,0.8-1.3,1.2-1.3c0.2,0,0.5,0.1,0.7,0.1c0,0.5-0.3,1.3-0.4,1.4
				c-0.1,0-0.4-0.1-0.6-0.1c-0.1,0-0.2,0-0.3,0.1c-0.2,0.1-0.3,0.3-0.5,0.7c-0.1,0.2-0.1,0.5-0.1,0.8v0.5l0.7,0c0,0.3,0,0.5,0,0.8
				h-1.4c-0.4,0-0.9,0-1.3,0C64.4,62.2,64.4,61.9,64.4,61.7"/>
			<path id="XMLID_93_" class="st9" d="M71.8,61.3C71.8,61.4,71.8,61.4,71.8,61.3c0.2,0.2,0.4,0.3,0.7,0.3c0.2,0,0.5-0.1,0.6-0.2
				c0.1-0.1,0.2-0.3,0.2-0.5c0-0.5-0.2-0.6-0.9-0.9c-0.9-0.4-1.6-1-1.6-1.9c0-0.6,0.3-1.1,0.6-1.5c0.4-0.4,1.1-0.6,1.9-0.6
				c0.5,0,1,0.1,1.2,0.2c0.1,0.6,0.1,1.2,0.1,1.8c-0.3,0-0.6,0.1-0.9,0.1l-0.2-0.9c0,0,0,0,0-0.1C73.3,57,73.1,57,73,57
				c-0.2,0-0.4,0.1-0.5,0.2c-0.1,0.1-0.2,0.3-0.2,0.6c0,0.5,0.2,0.6,1,0.9c1,0.4,1.5,0.9,1.5,1.8c0,0.6-0.2,1.2-0.7,1.6
				c-0.4,0.4-1,0.6-1.9,0.6c-0.4,0-1,0-1.4-0.2c-0.1-0.6-0.1-1.2-0.2-1.8c0.3-0.1,0.6-0.1,1-0.2L71.8,61.3z"/>
			<path class="st9" d="M77.7,58.1c0.6,0,1,0.2,1.2,0.5c0.3,0.4,0.5,0.9,0.5,1.5c0,0.1-0.4,0.6-0.5,0.6c-0.2,0-1.2,0-2,0
				c0,0.3,0.1,0.5,0.2,0.6c0.2,0.2,0.4,0.2,0.7,0.2c0.4,0,1-0.2,1.3-0.3c0.1,0.3,0.1,0.6,0.2,0.8c-0.5,0.3-1.3,0.5-1.8,0.5
				c-1.2,0-2.1-0.6-2.1-2C75.5,59.2,76.4,58.1,77.7,58.1 M77.1,59.1C77,59.3,77,59.5,77,59.9c0.3,0,0.8,0,1,0c0.1,0,0.1,0,0.1-0.1
				c0-0.2,0-0.5-0.1-0.6c-0.1-0.2-0.2-0.3-0.4-0.3C77.4,58.9,77.3,58.9,77.1,59.1"/>
			<path id="XMLID_90_" class="st9" d="M80,61.7l0.4,0c0,0,0,0,0,0v-2.5l-0.5,0c0-0.3,0-0.5,0-0.8c0.4,0,1.8-0.3,1.8-0.3
				c0,0,0,0,0,0c0,0.4,0.1,0.8,0.1,1.3l0.1,0c0.6-1.2,0.8-1.3,1.2-1.3c0.2,0,0.5,0.1,0.7,0.1c0,0.5-0.3,1.3-0.4,1.4
				c-0.1,0-0.4-0.1-0.6-0.1c-0.1,0-0.2,0-0.3,0.1c-0.2,0.1-0.3,0.3-0.5,0.7c-0.1,0.2-0.1,0.5-0.1,0.8v0.5l0.7,0c0,0.3,0,0.5,0,0.8
				h-1.4c-0.4,0-0.9,0-1.3,0C80,62.2,80,61.9,80,61.7"/>
			<path id="XMLID_89_" class="st9" d="M88.5,59c-0.1,0.4-0.3,0.9-0.7,1.6c-0.3,0.6-0.5,1.1-0.8,1.9c-0.3,0-0.8,0-1.3,0
				c-0.3-0.9-0.4-1.3-0.7-2.2c-0.2-0.6-0.3-1-0.4-1.3c0,0,0,0-0.1,0l-0.4,0c0-0.3,0-0.6,0-0.8h1.1h1.3c0,0.3,0,0.6,0,0.8l-0.4,0
				c0,0.2,0.1,0.6,0.2,1c0.1,0.5,0.2,0.9,0.3,1.2h0.1c0.1-0.4,0.2-0.7,0.3-1.1c0.1-0.3,0.2-0.6,0.3-1c0,0,0,0,0,0L87,59
				c0-0.3,0-0.6,0-0.8h1h0.8c0,0.3,0,0.6,0,0.8L88.5,59z"/>
			<path class="st9" d="M89.1,59.2c0-0.3,0-0.6,0-0.8c0.5,0,2-0.3,2-0.3c0,0,0,0,0,0c0,1.1,0,2.6,0,3.5l0.5,0v0.8h-1.3
				c-0.4,0-0.9,0-1.2,0c0-0.3,0-0.6,0-0.8l0.5,0c0,0,0,0,0,0v-2.4L89.1,59.2z M91.1,56.6c0,0.5-0.4,0.9-0.9,0.9
				c-0.4,0-0.8-0.4-0.8-0.9c0-0.4,0.3-0.8,0.8-0.8C90.8,55.8,91.1,56.2,91.1,56.6"/>
			<path id="XMLID_86_" class="st9" d="M94.7,58.1c0.3,0,0.8,0.1,1,0.2c0,0.3-0.3,1-0.5,1.1c-0.1,0-0.6-0.3-0.9-0.3
				c-0.2,0-0.4,0.1-0.5,0.3c-0.1,0.3-0.2,0.5-0.2,1c0,0.5,0.1,0.7,0.3,0.9c0.2,0.2,0.4,0.2,0.6,0.2c0.4,0,0.8-0.1,1.1-0.3
				c0.1,0.3,0.1,0.5,0.2,0.8c-0.6,0.3-1.3,0.5-1.7,0.5c-1.1,0-2-0.7-2-2C92.1,59.2,93.1,58.1,94.7,58.1"/>
			<path class="st9" d="M98.3,58.1c0.6,0,1,0.2,1.2,0.5c0.3,0.4,0.5,0.9,0.5,1.5c0,0.1-0.4,0.6-0.5,0.6c-0.2,0-1.2,0-2,0
				c0,0.3,0.1,0.5,0.2,0.6c0.2,0.2,0.4,0.2,0.7,0.2c0.4,0,1-0.2,1.3-0.3c0.1,0.3,0.1,0.6,0.2,0.8c-0.5,0.3-1.3,0.5-1.8,0.5
				c-1.2,0-2.1-0.6-2.1-2C96,59.2,96.9,58.1,98.3,58.1 M97.7,59.1c-0.1,0.2-0.2,0.4-0.2,0.8c0.3,0,0.8,0,1,0c0.1,0,0.1,0,0.1-0.1
				c0-0.2,0-0.5-0.1-0.6c-0.1-0.2-0.2-0.3-0.4-0.3C98,58.9,97.8,58.9,97.7,59.1"/>
		</g>
		<g>
			<line id="XMLID_83_" class="st10" x1="76.6" y1="66.4" x2="100" y2="66.4"/>
			<line id="XMLID_82_" class="st10" x1="0.1" y1="66.4" x2="23.5" y2="66.4"/>
			<g>
				<path id="XMLID_81_" class="st11" d="M26.3,66.9C26.3,66.9,26.3,66.9,26.3,66.9l0-0.5c-0.1-0.3-0.4-0.8-0.5-1.1c0,0,0,0,0,0
					l-0.1,0c0-0.1,0-0.2,0-0.3H26h0.6c0,0.1,0,0.2,0,0.3l-0.2,0c0.1,0.3,0.2,0.5,0.3,0.8h0c0.1-0.2,0.2-0.5,0.3-0.8c0,0,0,0,0,0
					l-0.2,0c0-0.1,0-0.2,0-0.3h0.5h0.3c0,0.1,0,0.2,0,0.3l-0.1,0c-0.1,0.3-0.4,0.8-0.6,1.1l0,0.5l0.2,0c0,0.1,0,0.2,0,0.3
					c-0.1,0-0.3,0-0.5,0c-0.2,0-0.3,0-0.5,0c0-0.1,0-0.2,0-0.3L26.3,66.9z"/>
				<path class="st11" d="M27.8,67.1c-0.2-0.1-0.2-0.3-0.2-0.6c0-0.3,0.1-0.5,0.3-0.7c0.1-0.1,0.3-0.2,0.5-0.2c0.2,0,0.3,0,0.4,0.1
					c0.2,0.1,0.3,0.3,0.3,0.6c0,0.3-0.2,0.6-0.3,0.7c-0.1,0.1-0.3,0.1-0.5,0.1C28.1,67.3,27.9,67.2,27.8,67.1 M28.5,66.9
					c0.1-0.1,0.1-0.2,0.1-0.5c0-0.2,0-0.3-0.1-0.4c0-0.1-0.1-0.1-0.2-0.1c-0.1,0-0.1,0-0.2,0.1c-0.1,0.1-0.1,0.2-0.1,0.4
					c0,0.3,0,0.4,0.1,0.5c0,0.1,0.1,0.1,0.2,0.1C28.4,67,28.4,67,28.5,66.9"/>
				<path id="XMLID_78_" class="st11" d="M31,67.2c0,0-0.3,0.1-0.5,0.1c0,0-0.1-0.1-0.1-0.2h0c-0.3,0.2-0.3,0.2-0.5,0.2
					c-0.2,0-0.4-0.3-0.4-0.5c0-0.3,0-0.5,0-0.8l-0.1,0c0-0.1,0-0.2,0-0.3c0.1,0,0.6,0,0.7,0c0,0,0,0,0,0c0,0.2,0,0.6,0,0.8
					c0,0.1,0,0.2,0,0.3c0,0.1,0.1,0.1,0.1,0.1c0.1,0,0.1,0,0.2-0.1c0-0.2,0-0.6,0-0.8l-0.2,0c0-0.1,0-0.2,0-0.3c0.1,0,0.6,0,0.7,0
					c0,0,0,0,0,0c0,0.4,0,0.8,0,1.2c0,0,0,0,0,0l0.2,0C31,67,31,67.1,31,67.2"/>
				<path id="XMLID_77_" class="st11" d="M31.2,67l0.2,0c0,0,0,0,0,0v-0.9l-0.2,0c0-0.1,0-0.2,0-0.3c0.1,0,0.6-0.1,0.6-0.1
					c0,0,0,0,0,0c0,0.1,0,0.3,0,0.4l0,0c0.2-0.4,0.3-0.5,0.4-0.5c0.1,0,0.2,0,0.2,0c0,0.2-0.1,0.4-0.2,0.5c0,0-0.1,0-0.2,0
					c0,0-0.1,0-0.1,0c-0.1,0.1-0.1,0.1-0.2,0.2c0,0.1,0,0.2,0,0.3V67l0.3,0c0,0.1,0,0.2,0,0.3h-0.5c-0.1,0-0.3,0-0.5,0
					C31.2,67.2,31.2,67.1,31.2,67"/>
				<path class="st11" d="M33.5,65.3c0-0.1,0-0.2,0-0.3c0.2,0,0.5,0,0.8,0c0.1,0,0.3,0,0.5,0.1c0.3,0.1,0.4,0.4,0.4,0.7
					c0,0.3-0.2,0.5-0.4,0.6c-0.2,0.1-0.4,0.1-0.5,0.1c0,0-0.1,0-0.2,0l0,0.5l0.3,0c0,0.1,0,0.2,0,0.3h-0.6h-0.4c0-0.1,0-0.2,0-0.3
					l0.2,0c0,0,0,0,0,0v-1.6L33.5,65.3z M34.2,66.1c0,0,0.1,0,0.1,0c0.1,0,0.2,0,0.2-0.1c0.1-0.1,0.1-0.2,0.1-0.3
					c0-0.3-0.1-0.5-0.3-0.5c0,0-0.1,0-0.1,0L34.2,66.1z"/>
				<path id="XMLID_74_" class="st11" d="M35.4,67l0.2,0c0,0,0,0,0,0v-0.9l-0.2,0c0-0.1,0-0.2,0-0.3c0.1,0,0.6-0.1,0.6-0.1
					c0,0,0,0,0,0c0,0.1,0,0.3,0,0.4l0,0c0.2-0.4,0.3-0.5,0.4-0.5c0.1,0,0.2,0,0.2,0c0,0.2-0.1,0.4-0.2,0.5c0,0-0.1,0-0.2,0
					c0,0-0.1,0-0.1,0c-0.1,0.1-0.1,0.1-0.2,0.2c0,0.1,0,0.2,0,0.3V67l0.3,0c0,0.1,0,0.2,0,0.3h-0.5c-0.1,0-0.3,0-0.5,0
					C35.4,67.2,35.4,67.1,35.4,67"/>
				<path class="st11" d="M37.1,67.1c-0.2-0.1-0.2-0.3-0.2-0.6c0-0.3,0.1-0.5,0.3-0.7c0.1-0.1,0.3-0.2,0.5-0.2c0.2,0,0.3,0,0.4,0.1
					c0.2,0.1,0.3,0.3,0.3,0.6c0,0.3-0.2,0.6-0.3,0.7c-0.1,0.1-0.3,0.1-0.5,0.1C37.4,67.3,37.2,67.2,37.1,67.1 M37.8,66.9
					c0.1-0.1,0.1-0.2,0.1-0.5c0-0.2,0-0.3-0.1-0.4c0-0.1-0.1-0.1-0.2-0.1c-0.1,0-0.1,0-0.2,0.1c-0.1,0.1-0.1,0.2-0.1,0.4
					c0,0.3,0,0.4,0.1,0.5c0,0.1,0.1,0.1,0.1,0.1C37.7,67,37.7,67,37.8,66.9"/>
				<path class="st11" d="M39.6,67.1c-0.3,0.1-0.4,0.2-0.4,0.2c-0.1,0-0.3,0-0.4-0.2c-0.1-0.1-0.2-0.3-0.2-0.5
					c0-0.3,0.1-0.5,0.3-0.7c0.1-0.1,0.3-0.2,0.4-0.2c0.1,0,0.2,0,0.3,0l0,0c0-0.2,0-0.3,0-0.5l-0.2,0c0-0.1,0-0.2,0-0.3
					c0.2,0,0.7-0.1,0.8-0.1c0,0,0,0,0,0c0,0.6,0,1.5,0,2.1c0,0,0,0,0,0l0.2,0c0,0.1,0,0.2,0,0.3c0,0-0.3,0.1-0.5,0.1
					C39.7,67.2,39.7,67.2,39.6,67.1L39.6,67.1z M39.6,66.1c0,0-0.1,0-0.2,0c-0.1,0-0.1,0-0.2,0.1c0,0.1-0.1,0.2-0.1,0.4
					c0,0.1,0,0.2,0.1,0.3c0,0,0.1,0.1,0.1,0.1c0.1,0,0.1,0,0.2-0.1c0,0,0,0,0-0.1C39.6,66.6,39.6,66.3,39.6,66.1"/>
				<path id="XMLID_69_" class="st11" d="M42.2,67.2c0,0-0.3,0.1-0.5,0.1c0,0-0.1-0.1-0.2-0.2h0c-0.3,0.2-0.3,0.2-0.5,0.2
					c-0.2,0-0.4-0.3-0.4-0.5c0-0.3,0-0.5,0-0.8l-0.1,0c0-0.1,0-0.2,0-0.3c0.1,0,0.6,0,0.7,0c0,0,0,0,0,0c0,0.2,0,0.6,0,0.8
					c0,0.1,0,0.2,0,0.3c0,0.1,0.1,0.1,0.1,0.1c0.1,0,0.1,0,0.2-0.1c0-0.2,0-0.6,0-0.8l-0.2,0c0-0.1,0-0.2,0-0.3c0.1,0,0.6,0,0.7,0
					c0,0,0,0,0,0c0,0.4,0,0.8,0,1.2c0,0,0,0,0,0l0.2,0C42.2,67,42.2,67.1,42.2,67.2"/>
				<path id="XMLID_68_" class="st11" d="M43.3,65.7c0.1,0,0.3,0,0.4,0.1c0,0.1-0.1,0.4-0.2,0.4c0,0-0.2-0.1-0.3-0.1
					c-0.1,0-0.1,0-0.2,0.1c0,0.1-0.1,0.2-0.1,0.4c0,0.2,0,0.3,0.1,0.3c0.1,0.1,0.2,0.1,0.2,0.1c0.1,0,0.3-0.1,0.4-0.1
					c0,0.1,0,0.2,0.1,0.3c-0.2,0.1-0.5,0.2-0.6,0.2c-0.4,0-0.7-0.3-0.7-0.7C42.3,66.1,42.7,65.7,43.3,65.7"/>
				<path id="XMLID_67_" class="st11" d="M44.1,67.2C44,67.1,44,67,44,66.9c0-0.2,0-0.4,0-0.4c0-0.1,0-0.4,0-0.5h-0.2
					c0-0.1,0-0.2,0-0.3c0.1,0,0.1,0,0.2,0c0,0,0,0,0,0c0-0.1,0-0.2,0-0.3c0.2-0.1,0.5-0.2,0.5-0.2c0,0,0,0,0,0c0,0.1,0,0.4,0,0.5
					c0.2,0,0.3,0,0.5,0c0,0.1,0,0.2,0,0.3c-0.1,0-0.3,0-0.5,0c0,0,0,0.1,0,0.3v0.4c0,0.1,0.1,0.2,0.2,0.2c0.1,0,0.3,0,0.4-0.1
					c0,0.1,0,0.2,0,0.3c-0.2,0.1-0.5,0.1-0.7,0.1C44.2,67.3,44.2,67.3,44.1,67.2"/>
				<path id="XMLID_66_" class="st11" d="M45.9,67.1c0,0.3-0.2,0.6-0.5,0.8c-0.1-0.1-0.1-0.1-0.2-0.2c0.2-0.2,0.3-0.3,0.3-0.4
					c0-0.1-0.1-0.2-0.2-0.2c0-0.2,0.1-0.4,0.3-0.4C45.8,66.7,45.9,66.9,45.9,67.1"/>
				<path class="st11" d="M47.3,67c-0.2-0.2-0.3-0.5-0.3-0.9c0-0.5,0.2-0.8,0.5-1c0.2-0.1,0.4-0.2,0.7-0.2c0.2,0,0.4,0.1,0.6,0.2
					c0.3,0.2,0.4,0.5,0.4,0.9c0,0.3-0.1,0.7-0.3,0.9c-0.2,0.2-0.5,0.3-0.8,0.3C47.7,67.3,47.4,67.2,47.3,67 M48.3,66.8
					c0.1-0.2,0.2-0.4,0.2-0.7c0-0.3-0.1-0.5-0.1-0.7c-0.1-0.1-0.2-0.2-0.3-0.2c-0.1,0-0.2,0.1-0.3,0.2c-0.1,0.1-0.2,0.4-0.2,0.7
					c0,0.4,0,0.6,0.2,0.7c0.1,0.1,0.2,0.2,0.3,0.2C48.2,67,48.2,67,48.3,66.8"/>
				<path id="XMLID_63_" class="st11" d="M51.1,67.2c0,0-0.3,0.1-0.5,0.1c-0.1,0-0.1-0.1-0.1-0.2h0c-0.3,0.2-0.3,0.2-0.5,0.2
					c-0.2,0-0.4-0.3-0.4-0.5c0-0.3,0-0.5,0-0.8l-0.1,0c0-0.1,0-0.2,0-0.3c0.1,0,0.6,0,0.7,0c0,0,0,0,0,0c0,0.2,0,0.6,0,0.8
					c0,0.1,0,0.2,0,0.3c0,0.1,0.1,0.1,0.1,0.1c0.1,0,0.1,0,0.2-0.1c0-0.2,0-0.6,0-0.8l-0.2,0c0-0.1,0-0.2,0-0.3c0.1,0,0.6,0,0.7,0
					c0,0,0,0,0,0c0,0.4,0,0.8,0,1.2c0,0,0,0,0,0l0.2,0C51.1,67,51.1,67.1,51.1,67.2"/>
				<path id="XMLID_62_" class="st11" d="M51.2,67l0.2,0c0,0,0,0,0,0v-0.9l-0.2,0c0-0.1,0-0.2,0-0.3c0.1,0,0.6-0.1,0.6-0.1
					c0,0,0,0,0,0c0,0.1,0,0.3,0,0.4l0,0c0.2-0.4,0.3-0.5,0.4-0.5c0.1,0,0.2,0,0.2,0c0,0.2-0.1,0.4-0.2,0.5c0,0-0.1,0-0.2,0
					c0,0-0.1,0-0.1,0c-0.1,0.1-0.1,0.1-0.2,0.2c0,0.1,0,0.2,0,0.3V67l0.3,0c0,0.1,0,0.2,0,0.3h-0.5c-0.1,0-0.3,0-0.5,0
					C51.2,67.2,51.2,67.1,51.2,67"/>
				<path class="st11" d="M53.5,65.3c0-0.1,0-0.2,0-0.3c0.2,0,0.5,0,0.8,0c0.2,0,0.3,0,0.5,0c0.3,0.1,0.5,0.3,0.5,0.6
					c0,0.3-0.2,0.5-0.4,0.6v0c0.1,0.1,0.2,0.3,0.4,0.6c0,0.1,0.1,0.1,0.1,0.1l0.2,0c0,0.1,0,0.2,0,0.3c-0.1,0-0.2,0-0.2,0
					c-0.1,0-0.3,0-0.4,0c-0.1-0.2-0.2-0.6-0.3-0.7c0-0.1-0.1-0.2-0.2-0.2c0,0-0.1,0-0.1,0l0,0.6l0.2,0c0,0.1,0,0.2,0,0.3h-0.5h-0.4
					c0-0.1,0-0.2,0-0.3l0.2,0c0,0,0,0,0,0l0-1.7L53.5,65.3z M54.2,66.1C54.2,66.1,54.3,66.1,54.2,66.1c0.3,0,0.4-0.2,0.4-0.4
					c0-0.3-0.1-0.4-0.3-0.4c-0.1,0-0.1,0-0.1,0L54.2,66.1z"/>
				<path class="st11" d="M56.4,65.7c0.2,0,0.4,0.1,0.4,0.2c0.1,0.1,0.2,0.3,0.2,0.5c0,0.1-0.1,0.2-0.2,0.2c-0.1,0-0.4,0-0.7,0
					c0,0.1,0,0.2,0.1,0.2c0.1,0.1,0.2,0.1,0.2,0.1c0.1,0,0.4-0.1,0.5-0.1c0,0.1,0,0.2,0.1,0.3c-0.2,0.1-0.5,0.2-0.6,0.2
					c-0.4,0-0.8-0.2-0.8-0.7C55.6,66.1,55.9,65.7,56.4,65.7 M56.2,66.1c0,0.1-0.1,0.1-0.1,0.3c0.1,0,0.3,0,0.4,0c0,0,0,0,0,0
					c0-0.1,0-0.2,0-0.2c0-0.1-0.1-0.1-0.1-0.1C56.3,66,56.2,66,56.2,66.1"/>
				<path id="XMLID_57_" class="st11" d="M57.5,66.9C57.5,66.9,57.5,66.9,57.5,66.9c0.1,0.1,0.1,0.1,0.2,0.1c0,0,0.1,0,0.1,0
					c0,0,0.1-0.1,0.1-0.1c0-0.1,0-0.1-0.3-0.2c-0.3-0.1-0.4-0.2-0.4-0.5c0-0.2,0.1-0.4,0.3-0.4c0.1-0.1,0.3-0.1,0.5-0.1
					c0.2,0,0.3,0,0.4,0c0,0.2,0,0.3,0,0.5c-0.1,0-0.2,0-0.3,0l0-0.2c0,0,0,0,0,0c0,0-0.1,0-0.1,0c0,0-0.1,0-0.1,0
					c0,0-0.1,0.1-0.1,0.1c0,0.1,0,0.1,0.3,0.2c0.2,0.1,0.4,0.2,0.4,0.4c0,0.2-0.1,0.4-0.3,0.5c-0.1,0.1-0.3,0.1-0.5,0.1
					c-0.2,0-0.3,0-0.4-0.1c0-0.2,0-0.3-0.1-0.5c0.1,0,0.2,0,0.3-0.1L57.5,66.9z"/>
				<path class="st11" d="M58.6,67.8l0.2,0c0,0,0,0,0,0l0-1.7l-0.2,0c0-0.1,0-0.2,0-0.3c0.2,0,0.6-0.1,0.7-0.1c0,0,0,0,0,0
					c0,0.1,0,0.1,0,0.2l0,0c0.3-0.2,0.4-0.2,0.5-0.2c0.3,0,0.5,0.3,0.5,0.7c0,0.2,0,0.3-0.1,0.5c0,0.1-0.1,0.2-0.3,0.3
					c-0.1,0.1-0.2,0.1-0.3,0.1c-0.1,0-0.2,0-0.3,0l0,0c0,0.2,0,0.4,0,0.5l0.3,0c0,0.1,0,0.2,0,0.3c-0.2,0-0.4,0-0.5,0
					c-0.1,0-0.3,0-0.4,0C58.6,68,58.6,67.9,58.6,67.8 M59.7,66.2c0,0-0.1-0.1-0.1-0.1c-0.1,0-0.2,0-0.3,0.1c0,0.2,0,0.5,0,0.7
					c0,0.1,0.1,0.1,0.2,0.1c0.1,0,0.1,0,0.2-0.1c0-0.1,0.1-0.2,0.1-0.4C59.8,66.3,59.7,66.2,59.7,66.2"/>
				<path class="st11" d="M60.8,67.1c-0.1-0.1-0.2-0.3-0.2-0.6c0-0.3,0.1-0.5,0.3-0.7c0.1-0.1,0.3-0.2,0.5-0.2c0.2,0,0.3,0,0.4,0.1
					c0.2,0.1,0.3,0.3,0.3,0.6c0,0.3-0.2,0.6-0.3,0.7c-0.1,0.1-0.3,0.1-0.5,0.1C61.1,67.3,60.9,67.2,60.8,67.1 M61.5,66.9
					c0.1-0.1,0.1-0.2,0.1-0.5c0-0.2,0-0.3-0.1-0.4c0-0.1-0.1-0.1-0.2-0.1c-0.1,0-0.1,0-0.2,0.1c-0.1,0.1-0.1,0.2-0.1,0.4
					c0,0.3,0,0.4,0.1,0.5c0,0.1,0.1,0.1,0.2,0.1C61.4,67,61.4,67,61.5,66.9"/>
				<path id="XMLID_52_" class="st11" d="M62.3,66.1c0-0.1,0-0.2,0-0.3c0.2,0,0.6-0.1,0.7-0.1c0,0,0,0,0,0c0,0.1,0,0.2,0,0.2l0,0
					c0.3-0.2,0.4-0.2,0.5-0.2c0.1,0,0.3,0.1,0.3,0.3C64,66,64,66.1,64,66.2c0,0.2,0,0.5,0,0.7l0.2,0c0,0.1,0,0.2,0,0.3h-0.4
					c-0.1,0-0.3,0-0.4,0c0-0.1,0-0.2,0-0.3l0.1,0c0,0,0,0,0,0c0-0.1,0-0.3,0-0.5c0-0.2,0-0.2,0-0.3c0-0.1-0.1-0.1-0.1-0.1
					c-0.1,0-0.2,0.1-0.3,0.1c0,0.2,0,0.5,0,0.7l0.1,0c0,0.1,0,0.2,0,0.3h-0.4c-0.1,0-0.3,0-0.4,0c0-0.1,0-0.2,0-0.3l0.2,0
					c0,0,0,0,0,0v-0.9L62.3,66.1z"/>
				<path id="XMLID_51_" class="st11" d="M64.6,66.9C64.6,66.9,64.6,66.9,64.6,66.9c0.1,0.1,0.1,0.1,0.2,0.1c0,0,0.1,0,0.1,0
					c0,0,0.1-0.1,0.1-0.1c0-0.1,0-0.1-0.3-0.2c-0.3-0.1-0.4-0.2-0.4-0.5c0-0.2,0.1-0.4,0.3-0.4c0.1-0.1,0.3-0.1,0.5-0.1
					c0.2,0,0.3,0,0.4,0c0,0.2,0,0.3,0,0.5c-0.1,0-0.2,0-0.3,0l-0.1-0.2c0,0,0,0,0,0c0,0-0.1,0-0.1,0c0,0-0.1,0-0.1,0
					c0,0-0.1,0.1-0.1,0.1c0,0.1,0.1,0.1,0.3,0.2c0.2,0.1,0.4,0.2,0.4,0.4c0,0.2-0.1,0.4-0.3,0.5c-0.1,0.1-0.3,0.1-0.5,0.1
					c-0.2,0-0.3,0-0.4-0.1c0-0.2,0-0.3-0.1-0.5c0.1,0,0.2,0,0.3-0.1L64.6,66.9z"/>
				<path class="st11" d="M65.7,66.1c0-0.1,0-0.2,0-0.3c0.2,0,0.7-0.1,0.7-0.1c0,0,0,0,0,0c0,0.4,0,0.9,0,1.3l0.2,0v0.3h-0.4
					c-0.1,0-0.3,0-0.4,0c0-0.1,0-0.2,0-0.3l0.2,0c0,0,0,0,0,0v-0.9L65.7,66.1z M66.5,65.2c0,0.2-0.1,0.3-0.3,0.3
					c-0.1,0-0.3-0.1-0.3-0.3c0-0.1,0.1-0.3,0.3-0.3C66.4,64.9,66.5,65,66.5,65.2"/>
				<path class="st11" d="M66.9,66.8c0-0.5,0-1.1,0-1.7l-0.2,0c0-0.1,0-0.2,0-0.3c0.2,0,0.7-0.1,0.7-0.1c0,0,0,0,0,0
					c0,0.3,0,0.7,0,1l0,0c0.3-0.2,0.4-0.2,0.5-0.2c0.3,0,0.5,0.3,0.5,0.6c0,0.2,0,0.3-0.1,0.5c-0.1,0.1-0.1,0.3-0.3,0.3
					c-0.1,0.1-0.3,0.1-0.4,0.1c-0.1,0-0.2,0-0.3-0.1l-0.1,0.1c-0.1,0-0.2,0-0.3,0C66.9,67.2,66.9,67,66.9,66.8 M67.8,66.2
					c0,0-0.1-0.1-0.1-0.1c-0.1,0-0.2,0-0.2,0.1c0,0.2,0,0.5,0,0.7c0,0.1,0.1,0.1,0.2,0.1c0.1,0,0.1,0,0.2-0.1c0-0.1,0.1-0.2,0.1-0.4
					C67.9,66.3,67.8,66.2,67.8,66.2"/>
				<path class="st11" d="M68.6,66.1c0-0.1,0-0.2,0-0.3c0.2,0,0.7-0.1,0.7-0.1c0,0,0,0,0,0c0,0.4,0,0.9,0,1.3l0.2,0v0.3H69
					c-0.1,0-0.3,0-0.4,0c0-0.1,0-0.2,0-0.3l0.2,0c0,0,0,0,0,0v-0.9L68.6,66.1z M69.3,65.2c0,0.2-0.1,0.3-0.3,0.3
					c-0.1,0-0.3-0.1-0.3-0.3c0-0.1,0.1-0.3,0.3-0.3C69.2,64.9,69.3,65,69.3,65.2"/>
				<path id="XMLID_44_" class="st11" d="M69.6,67l0.2,0c0,0,0,0,0,0v-1.7l-0.2,0c0-0.1,0-0.2,0-0.3c0.2,0,0.7-0.1,0.7-0.1
					c0,0,0,0,0,0c0,0.6,0,1.5,0,2.1l0.2,0c0,0.1,0,0.2,0,0.3H70c-0.1,0-0.3,0-0.4,0C69.6,67.2,69.6,67.1,69.6,67"/>
				<path class="st11" d="M70.6,66.1c0-0.1,0-0.2,0-0.3c0.2,0,0.7-0.1,0.7-0.1c0,0,0,0,0,0c0,0.4,0,0.9,0,1.3l0.2,0v0.3h-0.4
					c-0.1,0-0.3,0-0.4,0c0-0.1,0-0.2,0-0.3l0.2,0c0,0,0,0,0,0v-0.9L70.6,66.1z M71.4,65.2c0,0.2-0.1,0.3-0.3,0.3
					c-0.1,0-0.3-0.1-0.3-0.3c0-0.1,0.1-0.3,0.3-0.3C71.3,64.9,71.4,65,71.4,65.2"/>
				<path id="XMLID_41_" class="st11" d="M72,67.2c-0.1-0.1-0.1-0.2-0.1-0.3c0-0.2,0-0.4,0-0.4c0-0.1,0-0.4,0-0.5h-0.2
					c0-0.1,0-0.2,0-0.3c0.1,0,0.1,0,0.2,0c0,0,0,0,0,0c0-0.1,0-0.2,0-0.3c0.2-0.1,0.5-0.2,0.5-0.2c0,0,0,0,0,0c0,0.1,0,0.4,0,0.5
					c0.2,0,0.3,0,0.5,0c0,0.1,0,0.2,0,0.3c-0.1,0-0.3,0-0.5,0c0,0,0,0.1,0,0.3v0.4c0,0.1,0.1,0.2,0.2,0.2c0.1,0,0.3,0,0.4-0.1
					c0,0.1,0,0.2,0,0.3c-0.2,0.1-0.5,0.1-0.7,0.1C72.1,67.3,72.1,67.3,72,67.2"/>
				<path id="XMLID_40_" class="st11" d="M74.5,66c0,0.1-0.2,0.5-0.3,0.7c-0.1,0.2-0.3,0.8-0.5,1.1c-0.1,0.1-0.2,0.3-0.3,0.3
					c-0.1,0-0.4-0.2-0.4-0.3c0.1,0,0.1-0.1,0.2-0.2c0.1-0.1,0.2-0.2,0.2-0.3c-0.1-0.3-0.2-0.5-0.3-0.7c-0.1-0.2-0.2-0.4-0.2-0.6
					c0,0,0,0,0,0L73,66c0-0.1,0-0.2,0-0.3h0.4h0.5c0,0.1,0,0.2,0,0.3l-0.2,0c0,0.1,0.1,0.2,0.1,0.4c0,0.1,0.1,0.3,0.1,0.4h0
					c0-0.1,0.1-0.2,0.1-0.4c0-0.1,0.1-0.2,0.1-0.4c0,0,0,0,0,0L74,66c0-0.1,0-0.2,0-0.3h0.4h0.3c0,0.1,0,0.2,0,0.3L74.5,66z"/>
			</g>
		</g>
	</g>
</g>
</svg>
