<?xml version="1.0" encoding="utf-8"?>
<!-- Generator: Adobe Illustrator 19.0.0, SVG Export Plug-In . SVG Version: 6.00 Build 0)  -->
<svg version="1.1" id="Layer_1" xmlns="http://www.w3.org/2000/svg" xmlns:xlink="http://www.w3.org/1999/xlink" x="0px" y="0px"
	 viewBox="0 0 400 400" style="enable-background:new 0 0 400 400;" xml:space="preserve">
<style type="text/css">
	.st0{fill:#0D3653;}
	.st1{fill:#0E304D;}
	.st2{fill:#26793C;}
	.st3{clip-path:url(#SVGID_2_);fill:url(#SVGID_3_);}
	.st4{clip-path:url(#SVGID_5_);fill:url(#SVGID_6_);}
	.st5{clip-path:url(#SVGID_8_);fill:url(#SVGID_9_);}
	.st6{clip-path:url(#SVGID_11_);fill:url(#SVGID_12_);}
	.st7{clip-path:url(#SVGID_14_);fill:url(#SVGID_15_);}
	.st8{clip-path:url(#SVGID_17_);fill:url(#SVGID_18_);}
	.st9{fill:#13A64D;}
	.st10{fill:none;stroke:#22201F;stroke-width:1.874;stroke-miterlimit:10;}
	.st11{fill:#241F20;}
</style>
<g>
	<g>
		<path class="st0" d="M162.6,131.6c0,0-1.3-0.1-1.6,0c-1.3,0.3-4.9,1.5-6.5,5.1l-8.5,11.7c0,0-6.5,9.9-11.7,13
			c0,0-6.7,4.7-12.2,7.6c0,0-5.5,2.9-6.3,12.4v7.9c0,0-0.1,3.7,2.5,6.2c1.1,1,2.1,1.6,2.8,2.1c0,0,2.3,0.8,5.4,3.2l0.7-5l-3.2-0.3
			c0,0-2.1-0.1-3.7-2.1c-1-1.2-1.3-2.3-1.4-3.6v-8l0.3-2.6c0,0,1.2-4.1,2.1-4.8c0,0,0.9-2.3,9.9-6.8c0,0,7.5-4.2,10.8-8.6
			c0,0,4.1-4.6,8.4-11c0,0,6.7-9.6,8.1-11.3c0,0,0.3-0.5,1.4-0.7c0.2,0,1,0,2-0.1L162.6,131.6z"/>
		<path class="st0" d="M139.1,178.4c-8.8,0-16,7.4-16,16.4c0,3.6,1.1,4.2,3.1,5.8c0.5,0.4,1.1,0.9,1.6,1.5c2.8,2.9,6.6,8.7,10.8,9.1
			h0c0.1,0,0.3,0,0.4,0h0c0.1,0,0.3,0,0.4,0c0,0,0.1,0,0.1,0h0c4.8-0.4,9-6.3,11.8-9.8c0.2-0.2,0.4-0.4,0.5-0.6c2-2.2,3.1-2.3,3.1-6
			C155.1,185.8,147.9,178.4,139.1,178.4 M139.1,205.4c-4.2,0-7.7-3.8-7.7-8.5c0-4.7,3.4-8.5,7.7-8.5c4.2,0,7.7,3.8,7.7,8.5
			C146.8,201.6,143.3,205.4,139.1,205.4"/>
		<path class="st1" d="M139.1,182.8c-7.4,0-13.4,6.4-13.4,14.4c0,1.3,0.1,2.6,0.5,3.8c1.5,6,6.5,10.4,12.5,10.6h0c0.1,0,0.3,0,0.4,0
			h0c0.1,0,0.3,0,0.4,0h0.1h0c5.9-0.2,10.8-4.6,12.4-10.4c0.3-1.2,0.5-2.5,0.5-3.9C152.5,189.2,146.5,182.8,139.1,182.8
			 M139.1,205.6c-4.2,0-7.7-3.8-7.7-8.5c0-4.7,3.4-8.5,7.7-8.5c4.2,0,7.7,3.8,7.7,8.5C146.8,201.8,143.3,205.6,139.1,205.6"/>
		<polygon class="st0" points="152.9,194.7 203.9,194.7 217,197.1 214.4,199.6 152.9,199.6 		"/>
		<polygon class="st0" points="161,131.6 217.1,131.6 217.1,134.5 207.1,135.9 161,135.9 		"/>
		<path class="st2" d="M147.9,176.2h4.7l9.4-23.6h0.7l7.1,17.2l4.1,0.1l-8.8-22.1c0,0-2.6-3.7-5.1-0.3L147.9,176.2z"/>
		<path class="st2" d="M156.2,171.4h20.2c0,0,1.8,0.1,1.3-1.1l0.1-24.3h4.5v25.4c0,0,0.2,4.7-4.2,4.5l-24.1,0L156.2,171.4z"/>
		<g>
			<defs>
				<path id="SVGID_1_" d="M256.6,180.7c-1.4,0-2.5,1.3-2.5,3c0,1.6,1.1,3,2.5,3h17.1c1.4,0,2.5-1.2,2.6-2.8
					c0.1-1.7-1.1-3.2-2.5-3.2H256.6z"/>
			</defs>
			<clipPath id="SVGID_2_">
				<use xlink:href="#SVGID_1_"  style="overflow:visible;"/>
			</clipPath>
			
				<linearGradient id="SVGID_3_" gradientUnits="userSpaceOnUse" x1="-97.6382" y1="611.9075" x2="-96.7813" y2="611.9075" gradientTransform="matrix(25.9485 0 0 25.9485 2787.637 -15694.4053)">
				<stop  offset="0" style="stop-color:#0B3451"/>
				<stop  offset="0.9951" style="stop-color:#0FA54D"/>
				<stop  offset="1" style="stop-color:#0FA54D"/>
			</linearGradient>
			<rect x="254.1" y="180.7" class="st3" width="22.3" height="6"/>
		</g>
		<g>
			<defs>
				<path id="SVGID_4_" d="M268.3,153c-1.4,0-2.5,1.3-2.5,3c0,1.7,1.1,3,2.5,3h8.3c1.3,0,2.5-1.2,2.6-2.8c0.1-1.7-1.1-3.2-2.5-3.2
					H268.3z"/>
			</defs>
			<clipPath id="SVGID_5_">
				<use xlink:href="#SVGID_4_"  style="overflow:visible;"/>
			</clipPath>
			
				<linearGradient id="SVGID_6_" gradientUnits="userSpaceOnUse" x1="-97.7626" y1="606.3341" x2="-96.9057" y2="606.3341" gradientTransform="matrix(15.7335 0 0 15.7335 1803.9165 -9383.7725)">
				<stop  offset="0" style="stop-color:#0B3451"/>
				<stop  offset="0.9951" style="stop-color:#0FA54D"/>
				<stop  offset="1" style="stop-color:#0FA54D"/>
			</linearGradient>
			<rect x="265.8" y="153" class="st4" width="13.6" height="6"/>
		</g>
		<g>
			<defs>
				<path id="SVGID_7_" d="M257.7,141.4c-1.4,0-2.5,1.3-2.5,3c0,1.7,1.1,3,2.5,3h23.8c1.4,0,2.5-1.2,2.6-2.8
					c0.1-1.7-1.1-3.2-2.5-3.2H257.7z"/>
			</defs>
			<clipPath id="SVGID_8_">
				<use xlink:href="#SVGID_7_"  style="overflow:visible;"/>
			</clipPath>
			
				<linearGradient id="SVGID_9_" gradientUnits="userSpaceOnUse" x1="-97.6436" y1="614.2136" x2="-96.7867" y2="614.2136" gradientTransform="matrix(33.8628 0 0 33.8628 3561.6489 -20654.6309)">
				<stop  offset="0" style="stop-color:#0B3451"/>
				<stop  offset="0.9951" style="stop-color:#0FA54D"/>
				<stop  offset="1" style="stop-color:#0FA54D"/>
			</linearGradient>
			<rect x="255.2" y="141.4" class="st5" width="29.1" height="6"/>
		</g>
		<path class="st2" d="M222,172.4l8.4,3.3c-1.3,5.7-3.4,10-6.4,12.8c-3,2.8-6.8,4.2-11.4,4.2c-5.7,0-10.3-2.4-14-7.2
			c-3.6-4.8-5.5-11.3-5.5-19.5c0-8.7,1.9-15.5,5.5-20.4c3.7-4.8,8.5-7.3,14.5-7.3c5.2,0,9.5,1.9,12.8,5.7c1.9,2.2,3.4,5.5,4.4,9.7
			l-8.6,2.5c-0.5-2.7-1.6-4.9-3.2-6.4c-1.6-1.6-3.6-2.4-5.8-2.4c-3.2,0-5.7,1.4-7.7,4.2c-2,2.8-3,7.3-3,13.6c0,6.6,1,11.4,2.9,14.2
			c1.9,2.8,4.5,4.2,7.6,4.2c2.3,0,4.3-0.9,5.9-2.7C220.1,179,221.3,176.2,222,172.4"/>
		<g>
			<defs>
				<path id="SVGID_10_" d="M234.6,166.9c-0.5,0-0.9,0.5-0.9,1.1v3.6c0,0.6,0.4,1.1,0.9,1.1h17c1.2,0,2.3-1.2,2.4-2.7
					c0.1-1.7-1-3.1-2.3-3.1H234.6z"/>
			</defs>
			<clipPath id="SVGID_11_">
				<use xlink:href="#SVGID_10_"  style="overflow:visible;"/>
			</clipPath>
			
				<linearGradient id="SVGID_12_" gradientUnits="userSpaceOnUse" x1="-97.4945" y1="611.1509" x2="-96.6376" y2="611.1509" gradientTransform="matrix(23.7076 0 0 23.7076 2545.0242 -14319.0723)">
				<stop  offset="0" style="stop-color:#0B3451"/>
				<stop  offset="0.9951" style="stop-color:#0FA54D"/>
				<stop  offset="1" style="stop-color:#0FA54D"/>
			</linearGradient>
			<rect x="233.7" y="166.9" class="st6" width="20.4" height="5.8"/>
		</g>
		<g>
			<defs>
				<path id="SVGID_13_" d="M259.6,166.9c-1.3,0-2.3,1.3-2.3,2.9c0,1.6,1,2.9,2.3,2.9h15.6c1.2,0,2.3-1.2,2.4-2.7
					c0.1-1.7-1-3.1-2.3-3.1H259.6z"/>
			</defs>
			<clipPath id="SVGID_14_">
				<use xlink:href="#SVGID_13_"  style="overflow:visible;"/>
			</clipPath>
			
				<linearGradient id="SVGID_15_" gradientUnits="userSpaceOnUse" x1="-97.6609" y1="611.155" x2="-96.804" y2="611.155" gradientTransform="matrix(23.7173 0 0 23.7173 2573.5466 -14325.1406)">
				<stop  offset="0" style="stop-color:#0B3451"/>
				<stop  offset="0.9951" style="stop-color:#0FA54D"/>
				<stop  offset="1" style="stop-color:#0FA54D"/>
			</linearGradient>
			<rect x="257.3" y="166.9" class="st7" width="20.4" height="5.8"/>
		</g>
		<g>
			<defs>
				<path id="SVGID_16_" d="M213.8,131.6c0,0-0.1,0-0.1,0c-16,0-29,15.2-29,34.1c0,18.8,13,34.1,29,34.1c1.1,0,2.2-0.1,3.3-0.2h38.3
					c1.4,0,2.5-1.3,2.5-3c0-1.7-1.1-3-2.5-3h-24.9c2.3-1.9,4.3-4.1,6-6.6h7.8c1.4,0,2.5-1.3,2.5-3c0-1.6-1.1-3-2.5-3H236
					c-4.4,8.9-12.6,14.8-22,14.8c-14.1,0-25.5-13.5-25.5-30.1c0-16.6,11.4-30.1,25.5-30.1c12.2,0,22.4,10.1,24.9,23.6
					c1.7,0,3.1,0,3.1-0.1H260c1.4,0,2.5-1.3,2.5-3c0-1.6-1.1-3-2.5-3h-19.3c-0.7-2-1.5-3.8-2.4-5.6h8.5c1.4,0,2.5-1.3,2.5-3
					c0-1.7-1.1-3-2.5-3h-12.6c-1.2-1.5-2.6-2.8-4.1-4h25.5c1.4,0,2.5-1.3,2.5-3c0-1.6-1.1-3-2.5-3H213.8z"/>
			</defs>
			<clipPath id="SVGID_17_">
				<use xlink:href="#SVGID_16_"  style="overflow:visible;"/>
			</clipPath>
			
				<linearGradient id="SVGID_18_" gradientUnits="userSpaceOnUse" x1="-97.5105" y1="618.3966" x2="-96.6536" y2="618.3966" gradientTransform="matrix(90.8433 0 0 90.8433 9042.832 -56011.457)">
				<stop  offset="0" style="stop-color:#0B3451"/>
				<stop  offset="0.9951" style="stop-color:#0FA54D"/>
				<stop  offset="1" style="stop-color:#0FA54D"/>
			</linearGradient>
			<rect x="184.7" y="131.6" class="st8" width="77.8" height="68.1"/>
		</g>
	</g>
	<g>
		<g>
			<path class="st9" d="M13.2,243.8c0.1,0,0.2-0.1,0.2-0.2c2.1-6,5.1-14.7,7.1-20.8c0.6-0.1,2.2-0.1,4.7-0.1c2,6.2,4.7,15,6.5,21
				l1.7,0.1c0,1,0,2.1-0.1,3.1h-4.1h-5.5c0-1,0-2.1,0-3.1l1.7-0.1c0.1,0,0.1-0.1,0.1-0.2c-0.2-0.6-0.5-1.7-0.7-2.3
				c0-0.1-0.1-0.2-0.2-0.2l-6.3,0.1c-0.2,0.8-0.4,1.8-0.6,2.6l1.9,0.1c0,1,0,2.1,0,3.1h-4.8h-3.3c0-1,0-2.1,0.1-3.1L13.2,243.8z
				 M21.7,229.6c-0.8,2.7-1.6,5.7-2.3,8.2c0,0.1,0,0.2,0.1,0.2h4.8c-0.7-2.4-1.5-5.5-2.4-8.4H21.7z"/>
			<path class="st9" d="M34.6,244l1.8-0.1c0.1,0,0.1-0.1,0.1-0.1v-18.4l-2.3-0.1c0-1,0-2.1,0.1-3.1c1.9-0.2,7.4-1,7.8-1
				c0.1,0,0.1,0,0.1,0.1c0,6.1-0.1,15.7-0.1,22.6l2,0.1c0,1,0,2.1,0,3h-4.7c-1.4,0-3.2,0-4.7,0C34.5,246.1,34.6,244.9,34.6,244"/>
			<path class="st9" d="M45.3,234.5c0-1,0-2.1,0.1-3.1c1.8-0.2,7.4-1,7.6-1c0.1,0,0.1,0,0.1,0.1c0,4-0.1,9.7-0.1,13.4l1.9,0.1v3.1
				h-4.7c-1.4,0-3.2,0-4.6,0c0-1,0-2.1,0-3.1l1.8-0.1c0.1,0,0.1-0.1,0.1-0.2v-9.1L45.3,234.5z M52.9,224.9c0,2-1.5,3.3-3.2,3.3
				c-1.5,0-3-1.4-3-3.3c0-1.6,1.3-3.1,3.1-3.1C51.9,221.9,52.9,223.3,52.9,224.9"/>
			<path class="st9" d="M55.9,234.6c0-1,0.1-2.2,0.1-3.1c1.7-0.3,7.8-1.1,8-1.1c0.1,0,0.1,0,0.1,0.1c0,4.3,0,9.6,0,13.9
				c0,2.4-0.2,3.5-1,5.2c-1.2,2.8-3.1,5.7-5.3,6.9c-1.1,0-3.3-1.8-3.4-2.8c1.2-0.7,2.6-1.5,3.1-2.6c0.7-1.4,1.1-3.1,1-7l-0.1-9.4
				L55.9,234.6z M63.7,224.7c0,2-1.3,3.4-3.2,3.4c-1.4,0-3-1.3-3-3.3c0-1.6,1.3-3.1,3.2-3.1C62.7,221.7,63.7,223.3,63.7,224.7"/>
			<path class="st9" d="M76.2,245.8c-2.1,1.1-3.7,1.6-4.9,1.6c-1.8,0-4.4-2-4.4-4.3c0-2.1,2.3-5.6,7.7-5.6h1.6
				c0.1-1.8-0.5-2.9-2.1-2.9c-1.2,0-3,1-4.3,2.1c-0.7-0.8-1.3-1.7-1.8-2.7c2.5-2.1,5-3.6,8.3-3.6c2.6,0,5.2,2.4,5.2,5.5
				c0,2.4,0,5.9-0.1,7.5c0,0.2,0,0.3,0.2,0.3l1.8-0.1c0,1,0,2.1,0,3c-0.6,0.2-3,0.7-5.7,0.7c-0.3-0.3-0.8-0.9-1.3-1.6H76.2z
				 M73.8,243.8c0.9,0,1.8-0.5,2.3-0.8c0.1-0.1,0.1-0.2,0.1-0.2v-2.6c-0.2,0-0.5,0-0.7,0c-2.2,0-3.2,1.1-3.2,2.2
				C72.2,243.3,73.1,243.8,73.8,243.8"/>
			<path class="st9" d="M84.6,244l1.6-0.1c0.1,0,0.1-0.1,0.1-0.1v-18.4l-2.2-0.1c0-1,0-2.2,0.1-3.1c1.9-0.2,7.3-1,7.7-1
				c0.1,0,0.1,0,0.1,0.1c0,3.1-0.1,7.2-0.1,10.9l0.2,0c3.3-1.8,3.9-1.9,5.2-1.9c1.4,0,3.2,1.5,4,3c0.3,0.7,0.5,1.5,0.5,2.7
				c0,2.3-0.1,5.2-0.1,7.7l1.7,0.1c0,1,0,2.1,0,3.1h-4.2c-1.4,0-3.1,0-4.4,0c0-1,0-2,0-3.1l1.2-0.1c0.1,0,0.1-0.1,0.1-0.2
				c0-1.6,0-4,0-5.4c0-1.4,0-2.4-0.3-3c-0.3-0.5-0.7-0.7-1.3-0.7c-0.8,0-1.8,0.5-2.6,1.1c0,2.3-0.1,6-0.1,8.2l1.6,0.1
				c0,1,0,2.1-0.1,3h-4.5c-1.4,0-3,0-4.3,0C84.6,246.1,84.6,244.9,84.6,244"/>
			<path class="st9" d="M114.4,245.8c-2,1.1-3.6,1.6-4.9,1.6c-1.8,0-4.4-2-4.4-4.3c0-2.1,2.2-5.6,7.7-5.6h1.6c0.1-1.8-0.5-2.9-2-2.9
				c-1.2,0-3,1-4.3,2.1c-0.7-0.8-1.3-1.7-1.8-2.7c2.5-2.1,5-3.6,8.3-3.6c2.6,0,5.2,2.4,5.2,5.5c0,2.4,0,5.9-0.1,7.5
				c0,0.2,0,0.3,0.2,0.3l1.8-0.1c0,1,0,2.1,0,3c-0.5,0.2-3,0.7-5.7,0.7c-0.3-0.3-0.8-0.9-1.3-1.6H114.4z M112,243.8
				c0.9,0,1.8-0.5,2.3-0.8c0.1-0.1,0.1-0.2,0.1-0.2v-2.6c-0.2,0-0.5,0-0.7,0c-2.2,0-3.2,1.1-3.2,2.2
				C110.4,243.3,111.3,243.8,112,243.8"/>
			<path class="st9" d="M122.8,234.5c0-1,0-2.1,0-3c1.7-0.1,6.8-1.1,7-1.1c0.1,0,0.1,0,0.1,0.1c0.2,0.8,0.3,1.5,0.5,2.3l0.2,0
				c3.3-2.2,4.1-2.5,5.6-2.5c1.5,0,2.9,1.4,3.5,2.7c0.7,1.1,0.8,2.3,0.8,3.3c0,2.1-0.1,5.2-0.1,7.5l1.7,0.1c0,1,0,2.1,0,3.1h-4.4
				c-1.5,0-3.1,0-4.3,0c0-1,0-2.1,0-3.1l1.4-0.1c0.1,0,0.1-0.1,0.1-0.2c0-1.5,0-3.6,0-5c0-1.7,0-2.6-0.3-3.1
				c-0.3-0.7-0.8-0.8-1.3-0.8c-0.7,0-1.9,0.6-2.7,1.3c0,2.1-0.1,5.7-0.1,7.8l1.5,0.1c0,1,0,2.1,0,3h-4.3c-1.4,0-3.2,0-4.5,0
				c0-1,0-2.1,0-3.1l1.7-0.1c0.1,0,0.1-0.1,0.1-0.2v-9.1L122.8,234.5z"/>
			<path class="st9" d="M156.7,225.5c2.3-2,5.4-2.9,8.4-2.9c2.1,0,3.7,0.2,4.5,0.6c0.2,2.5,0.4,5,0.5,7.5c-1.1,0.2-2.4,0.4-3.6,0.5
				l-0.8-3.9c0-0.1-0.1-0.4-0.2-0.4c-0.4-0.3-0.9-0.5-1.6-0.5c-1.1,0-2.3,0.5-3.2,1.6c-1.5,1.7-2.3,4.1-2.3,7.2c0,3.2,0.6,5.2,2,6.6
				c1,1,2.6,1.5,4,1.5c1.5,0,4.2-0.5,5.3-1c0.3,1.1,0.5,2.4,0.6,3.4c-2.2,0.9-5.4,1.7-7.1,1.7c-2.6,0-5.3-0.6-7.3-2.2
				c-2.2-1.7-3.9-4.9-3.9-8.8C152,231.2,154.2,227.7,156.7,225.5"/>
			<path class="st9" d="M174.7,245.6c-1.6-1.4-2.5-3.4-2.5-6.3c0-2.9,1.2-5.5,3.2-7.2c1.5-1.2,3.5-1.8,5.6-1.8
				c1.8,0,3.3,0.4,4.7,1.3c1.7,1.2,3.1,3.6,3.1,6.8c0,3.2-1.6,6-3.6,7.4c-1.3,0.9-3,1.4-5,1.4C178.1,247.4,176.1,246.9,174.7,245.6
				 M182.1,243.6c0.7-1,0.8-2.4,0.8-4.9c0-2.3-0.3-3.4-0.6-4.3c-0.4-0.8-1-1.1-1.6-1.1c-0.6,0-1.2,0.3-1.6,0.9
				c-0.5,0.9-0.9,2.3-0.9,4.5c0,2.7,0.3,4,0.8,4.8c0.4,0.7,1,1,1.6,1C181.1,244.5,181.7,244.3,182.1,243.6"/>
			<path class="st9" d="M208.9,246.7c-0.3,0.2-3.3,0.7-5.6,0.7c-0.5-0.4-1-1-1.6-1.8h-0.2c-2.8,1.7-3.4,1.8-4.8,1.8
				c-2.1,0-4.7-3-4.7-5.2c0-2.8,0-5.7,0.1-8.1l-1.5-0.1c0-1,0-2.1,0.1-3c1.4-0.1,6.4-0.2,6.9-0.3c0.1,0,0.1,0.1,0.1,0.2
				c0,2.6-0.1,5.8-0.1,8.5c0,1.1,0,2.4,0.4,3.2c0.4,0.7,0.9,0.7,1.3,0.7c0.6,0,1.4-0.3,2-0.8c0-2.5,0-6.2,0-8.4l-1.7-0.1
				c0-1,0-2.2,0.1-3.1c1.3,0,6.7-0.2,7.2-0.2c0,0,0.1,0.1,0.1,0.2c0,3.9-0.1,8.3-0.1,12.6c0,0.2,0,0.2,0.1,0.2l1.9-0.1
				C209,244.6,208.9,245.7,208.9,246.7"/>
			<path class="st9" d="M210.5,244l1.6-0.1c0.1,0,0.1-0.1,0.1-0.1v-9.3l-2-0.1c0-1,0-2.1,0.1-3c1.5-0.2,6.6-1,6.8-1
				c0,0,0.1,0,0.1,0.1c0.1,1.6,0.2,3.1,0.3,4.7l0.2,0c2.1-4.4,2.9-4.8,4.6-4.8c0.9,0,1.8,0.2,2.5,0.5c0,1.7-1,4.7-1.6,5.4
				c-0.3-0.1-1.3-0.4-2.2-0.4c-0.3,0-0.6,0-1,0.3c-0.6,0.6-1.1,1.2-1.8,2.6c-0.4,0.9-0.5,2.1-0.5,3.1v2l2.8,0.1c0,1,0,2-0.1,3h-5.1
				c-1.5,0-3.4,0-4.8,0C210.5,246.1,210.5,244.9,210.5,244"/>
			<path class="st9" d="M225.9,234.5c0-1,0-2.1,0.1-3.1c1.8-0.2,7.4-1,7.6-1c0.1,0,0.1,0,0.1,0.1c0,4-0.1,9.7-0.1,13.4l1.9,0.1v3.1
				h-4.7c-1.4,0-3.2,0-4.6,0c0-1,0-2.1,0-3.1l1.8-0.1c0.1,0,0.1-0.1,0.1-0.2v-9.1L225.9,234.5z M233.5,224.9c0,2-1.5,3.3-3.2,3.3
				c-1.5,0-3-1.4-3-3.3c0-1.6,1.3-3.1,3.1-3.1C232.5,221.9,233.5,223.3,233.5,224.9"/>
			<path class="st9" d="M245.7,230.4c2.1,0,3.7,0.8,4.6,2c1.1,1.4,1.7,3.3,1.7,5.7c0,0.6-1.6,2.1-1.8,2.2c-0.9,0.1-4.4,0.1-7.4,0.1
				c0.1,1.2,0.5,1.9,0.9,2.4c0.8,0.8,1.7,0.9,2.6,0.9c1.5,0,3.7-0.6,4.8-1c0.2,1,0.5,2.1,0.7,3.1c-2,1-5,1.7-6.7,1.7
				c-4.5,0-8-2.4-8-7.6C237.1,234.5,240.5,230.4,245.7,230.4 M243.4,234.5c-0.4,0.7-0.7,1.4-0.6,2.9c1.2,0,2.9,0,3.9-0.1
				c0.2,0,0.3-0.1,0.3-0.4c0-0.8-0.1-1.7-0.4-2.3c-0.3-0.7-0.8-1.1-1.5-1.1C244.4,233.5,243.9,233.6,243.4,234.5"/>
			<path class="st9" d="M254.2,244l1.6-0.1c0.1,0,0.1-0.1,0.1-0.1v-9.3l-2-0.1c0-1,0-2.1,0.1-3c1.5-0.2,6.6-1,6.8-1
				c0,0,0.1,0,0.1,0.1c0.1,1.6,0.2,3.1,0.3,4.7l0.2,0c2.1-4.4,2.9-4.8,4.6-4.8c0.9,0,1.8,0.2,2.5,0.5c0,1.7-1,4.7-1.6,5.4
				c-0.3-0.1-1.3-0.4-2.2-0.4c-0.3,0-0.7,0-1,0.3c-0.6,0.6-1.1,1.2-1.8,2.6c-0.4,0.9-0.5,2.1-0.5,3.1v2l2.8,0.1c0,1,0,2-0.1,3H259
				c-1.5,0-3.4,0-4.8,0C254.2,246.1,254.2,244.9,254.2,244"/>
			<path class="st9" d="M282,242.8c0,0.1,0.1,0.3,0.2,0.3c0.6,0.5,1.4,0.7,2.3,0.7c0.8,0,1.8-0.2,2.4-0.7c0.5-0.4,0.8-1.1,0.8-2
				c0-1.8-0.9-2.2-3.5-3.3c-3.5-1.4-6.1-3.7-6.1-7.3c0-2.3,1-4.2,2.3-5.5c1.5-1.5,4-2.4,7.3-2.4c1.9,0,3.8,0.3,4.5,0.7
				c0.2,2.3,0.4,4.5,0.5,6.8c-1.1,0.2-2.3,0.3-3.5,0.5l-0.8-3.4c0-0.1-0.1-0.2-0.1-0.3c-0.4-0.4-1.1-0.6-1.7-0.6
				c-0.8,0-1.5,0.2-2,0.7c-0.4,0.4-0.9,1.1-0.9,2.1c0,1.9,0.7,2.2,3.9,3.4c3.8,1.4,5.7,3.4,5.7,6.9c0,2.3-0.9,4.5-2.5,5.9
				c-1.6,1.4-3.9,2.1-7.2,2.1c-1.4,0-3.9-0.2-5.3-0.7c-0.3-2.3-0.5-4.6-0.7-6.9c1.1-0.3,2.4-0.5,3.6-0.7L282,242.8z"/>
			<path class="st9" d="M304.5,230.4c2.1,0,3.7,0.8,4.6,2c1.1,1.4,1.7,3.3,1.7,5.7c0,0.6-1.6,2.1-1.8,2.2c-0.9,0.1-4.4,0.1-7.4,0.1
				c0.1,1.2,0.5,1.9,0.9,2.4c0.8,0.8,1.7,0.9,2.5,0.9c1.5,0,3.7-0.6,4.8-1c0.2,1,0.5,2.1,0.6,3.1c-2,1-5,1.7-6.6,1.7
				c-4.5,0-8-2.4-8-7.6C295.9,234.5,299.4,230.4,304.5,230.4 M302.2,234.5c-0.4,0.7-0.6,1.4-0.6,2.9c1.2,0,2.9,0,3.9-0.1
				c0.2,0,0.3-0.1,0.3-0.4c0-0.8-0.1-1.7-0.4-2.3c-0.3-0.7-0.8-1.1-1.5-1.1C303.3,233.5,302.7,233.6,302.2,234.5"/>
			<path class="st9" d="M313.1,244l1.6-0.1c0.1,0,0.1-0.1,0.1-0.1v-9.3l-2-0.1c0-1,0-2.1,0.1-3c1.5-0.2,6.6-1,6.8-1
				c0,0,0.1,0,0.1,0.1c0.1,1.6,0.2,3.1,0.3,4.7l0.2,0c2.1-4.4,2.9-4.8,4.6-4.8c0.9,0,1.8,0.2,2.5,0.5c0,1.7-1,4.7-1.6,5.4
				c-0.3-0.1-1.3-0.4-2.2-0.4c-0.3,0-0.6,0-1,0.3c-0.6,0.6-1.1,1.2-1.8,2.6c-0.4,0.9-0.5,2.1-0.5,3.1v2l2.8,0.1c0,1,0,2-0.1,3h-5.1
				c-1.5,0-3.4,0-4.8,0C313.1,246.1,313.1,244.9,313.1,244"/>
			<path class="st9" d="M345,233.9c-0.5,1.3-1.3,3.3-2.5,6.2c-1,2.4-1.8,4.3-3,7.2c-1,0-3.2,0-5,0c-1.2-3.5-1.7-4.9-2.7-8.2
				c-0.7-2.4-1.2-3.9-1.6-5c0-0.1-0.1-0.1-0.2-0.2l-1.3-0.1c0-1,0-2.2,0.1-3.1h4.1h4.8c0,1,0,2.1,0,3.1l-1.5,0.1
				c0.2,0.7,0.4,2.1,0.9,3.9c0.5,1.7,0.9,3.3,1.2,4.5h0.2c0.4-1.6,0.9-2.8,1.3-4.2c0.3-1.3,0.6-2.4,1-3.9c0-0.2,0-0.2-0.1-0.2
				l-1.1-0.1c0-1,0-2.2,0.1-3.1h3.9h3c0,1,0,2.1-0.1,3.1L345,233.9z"/>
			<path class="st9" d="M347.3,234.5c0-1,0-2.1,0.1-3.1c1.8-0.2,7.4-1,7.6-1c0.1,0,0.1,0,0.1,0.1c0,4-0.1,9.7-0.1,13.4l1.9,0.1v3.1
				h-4.7c-1.4,0-3.2,0-4.6,0c0-1,0-2.1,0-3.1l1.8-0.1c0.1,0,0.1-0.1,0.1-0.2v-9.1L347.3,234.5z M354.9,224.9c0,2-1.5,3.3-3.2,3.3
				c-1.5,0-3-1.4-3-3.3c0-1.6,1.3-3.1,3.1-3.1C353.9,221.9,354.9,223.3,354.9,224.9"/>
			<path class="st9" d="M368.3,230.4c1.2,0,3,0.4,3.8,0.9c0,1.2-1.1,3.7-1.7,4.1c-0.4-0.2-2.2-1.1-3.6-1.1c-0.8,0-1.4,0.3-1.9,1.1
				c-0.5,1-0.7,2.1-0.7,3.7c0,1.8,0.5,2.8,1.1,3.5c0.6,0.7,1.6,0.9,2.3,0.9c1.4,0,2.9-0.6,4-1c0.2,1,0.5,2.1,0.6,3
				c-2.2,1.3-4.9,1.8-6.3,1.8c-4.2,0-7.4-2.8-7.4-7.3C358.5,234.8,362.3,230.4,368.3,230.4"/>
			<path class="st9" d="M382,230.4c2.1,0,3.7,0.8,4.6,2c1.1,1.4,1.7,3.3,1.7,5.7c0,0.6-1.6,2.1-1.8,2.2c-0.9,0.1-4.4,0.1-7.4,0.1
				c0.1,1.2,0.5,1.9,0.9,2.4c0.8,0.8,1.7,0.9,2.6,0.9c1.5,0,3.7-0.6,4.8-1c0.2,1,0.5,2.1,0.6,3.1c-2,1-5,1.7-6.7,1.7
				c-4.5,0-8-2.4-8-7.6C373.4,234.5,376.9,230.4,382,230.4 M379.7,234.5c-0.4,0.7-0.6,1.4-0.6,2.9c1.2,0,2.9,0,3.9-0.1
				c0.2,0,0.3-0.1,0.3-0.4c0-0.8-0.1-1.7-0.4-2.3c-0.3-0.7-0.8-1.1-1.5-1.1C380.8,233.5,380.2,233.6,379.7,234.5"/>
		</g>
		<g>
			<line class="st10" x1="300.2" y1="261.9" x2="388.4" y2="261.9"/>
			<line class="st10" x1="11.9" y1="261.9" x2="100.1" y2="261.9"/>
			<g>
				<path class="st11" d="M110.7,263.8C110.8,263.8,110.8,263.8,110.7,263.8l0.1-2c-0.5-1-1.5-3-2.1-4.1c0,0,0-0.1-0.1-0.1l-0.5,0
					c0-0.4,0-0.8,0-1.1h1.5h2.2c0,0.4,0,0.8,0,1.1l-0.7,0c0.4,1,0.8,2.1,1.2,2.9h0.1c0.4-0.9,0.9-1.8,1.2-2.8c0,0,0-0.1,0-0.1
					l-0.7,0c0-0.4,0-0.8,0-1.1h1.7h1.1c0,0.4,0,0.8,0,1.1l-0.5,0c-0.6,1.1-1.6,3-2.3,4.2l0,2l0.9,0.1c0,0.4,0,0.8,0,1.1
					c-0.5,0-1.3,0-1.9,0c-0.6,0-1.3,0-1.9,0c0-0.4,0-0.8,0-1.1L110.7,263.8z"/>
				<path class="st11" d="M116.2,264.5c-0.6-0.5-0.9-1.2-0.9-2.2c0-1,0.4-2,1.2-2.6c0.5-0.4,1.3-0.6,2-0.6c0.7,0,1.2,0.2,1.7,0.5
					c0.6,0.4,1.1,1.3,1.1,2.4c0,1.2-0.6,2.1-1.3,2.6c-0.5,0.3-1.1,0.5-1.8,0.5C117.4,265.1,116.7,264.9,116.2,264.5 M118.8,263.8
					c0.2-0.3,0.3-0.9,0.3-1.8c0-0.8-0.1-1.2-0.2-1.5c-0.1-0.3-0.4-0.4-0.6-0.4c-0.2,0-0.4,0.1-0.6,0.3c-0.2,0.3-0.3,0.8-0.3,1.6
					c0,1,0.1,1.4,0.3,1.7c0.2,0.3,0.3,0.4,0.6,0.4C118.5,264.1,118.7,264,118.8,263.8"/>
				<path class="st11" d="M128.5,264.9c-0.1,0.1-1.2,0.3-2,0.3c-0.2-0.1-0.3-0.3-0.6-0.7h-0.1c-1,0.6-1.2,0.7-1.7,0.7
					c-0.8,0-1.7-1-1.7-1.9c0-1,0-2,0-2.9l-0.6,0c0-0.4,0-0.7,0-1.1c0.5,0,2.3-0.1,2.5-0.1c0,0,0,0,0,0.1c0,0.9,0,2.1,0,3
					c0,0.4,0,0.8,0.2,1.1c0.1,0.3,0.3,0.3,0.5,0.3c0.2,0,0.5-0.1,0.7-0.3c0-0.9,0-2.2,0-3l-0.6,0c0-0.4,0-0.8,0-1.1
					c0.5,0,2.4-0.1,2.6-0.1c0,0,0,0,0,0.1c0,1.4,0,3,0,4.5c0,0.1,0,0.1,0,0.1l0.7,0C128.5,264.1,128.5,264.5,128.5,264.9"/>
				<path class="st11" d="M129.1,263.9l0.6,0c0,0,0,0,0-0.1v-3.3l-0.7,0c0-0.4,0-0.7,0-1.1c0.5-0.1,2.4-0.3,2.4-0.3c0,0,0,0,0,0
					c0,0.6,0.1,1.1,0.1,1.7l0.1,0c0.8-1.6,1.1-1.7,1.7-1.7c0.3,0,0.6,0.1,0.9,0.2c0,0.6-0.3,1.7-0.6,1.9c-0.1,0-0.5-0.1-0.8-0.1
					c-0.1,0-0.2,0-0.4,0.1c-0.2,0.2-0.4,0.4-0.6,0.9c-0.1,0.3-0.2,0.7-0.2,1.1v0.7l1,0c0,0.4,0,0.7,0,1.1h-1.9c-0.5,0-1.2,0-1.7,0
					C129.1,264.7,129.1,264.3,129.1,263.9"/>
				<path class="st11" d="M137.7,257.6c0-0.4,0-0.8,0-1.1c0.9,0,2,0,3,0c0.6,0,1.1,0,1.8,0.2c1,0.3,1.7,1.4,1.7,2.5
					c0,1-0.6,2-1.4,2.4c-0.6,0.3-1.4,0.4-1.7,0.4c-0.2,0-0.5,0-0.6,0l0,1.8l1.1,0c0,0.3,0,0.8,0,1.1h-2.2h-1.6c0-0.3,0-0.8,0-1.1
					l0.6,0c0,0,0,0,0-0.1v-6.2L137.7,257.6z M140.4,260.8c0,0.1,0.2,0.1,0.4,0.1c0.3,0,0.6-0.1,0.8-0.4c0.3-0.3,0.4-0.7,0.4-1.3
					c0-1-0.6-1.8-1.3-1.8c-0.2,0-0.3,0-0.4,0L140.4,260.8z"/>
				<path class="st11" d="M145,263.9l0.6,0c0,0,0.1,0,0.1-0.1v-3.3l-0.7,0c0-0.4,0-0.7,0-1.1c0.6-0.1,2.4-0.3,2.4-0.3c0,0,0,0,0,0
					c0,0.6,0.1,1.1,0.1,1.7l0.1,0c0.8-1.6,1-1.7,1.7-1.7c0.3,0,0.6,0.1,0.9,0.2c0,0.6-0.3,1.7-0.6,1.9c-0.1,0-0.5-0.1-0.8-0.1
					c-0.1,0-0.2,0-0.4,0.1c-0.2,0.2-0.4,0.4-0.6,0.9c-0.1,0.3-0.2,0.7-0.2,1.1v0.7l1,0c0,0.4,0,0.7,0,1.1h-1.9c-0.5,0-1.2,0-1.7,0
					C144.9,264.7,144.9,264.3,145,263.9"/>
				<path class="st11" d="M151.3,264.5c-0.6-0.5-0.9-1.2-0.9-2.2c0-1,0.4-2,1.2-2.6c0.5-0.4,1.3-0.6,2-0.6c0.6,0,1.2,0.2,1.7,0.5
					c0.6,0.4,1.1,1.3,1.1,2.4c0,1.2-0.6,2.1-1.3,2.6c-0.5,0.3-1.1,0.5-1.8,0.5C152.5,265.1,151.7,264.9,151.3,264.5 M153.9,263.8
					c0.2-0.3,0.3-0.9,0.3-1.8c0-0.8-0.1-1.2-0.2-1.5c-0.1-0.3-0.4-0.4-0.6-0.4c-0.2,0-0.4,0.1-0.6,0.3c-0.2,0.3-0.3,0.8-0.3,1.6
					c0,1,0.1,1.4,0.3,1.7c0.2,0.3,0.3,0.4,0.6,0.4C153.6,264.1,153.7,264,153.9,263.8"/>
				<path class="st11" d="M161,264.5c-1.1,0.6-1.4,0.6-1.7,0.6c-0.5,0-1-0.2-1.4-0.6c-0.4-0.5-0.7-1.2-0.7-2c0-1,0.3-1.9,1-2.6
					c0.4-0.5,1.1-0.8,1.7-0.8c0.4,0,0.8,0.1,1.1,0.2l0.1,0c0-0.6,0-1.3,0-1.9l-0.9,0c0-0.4,0-0.7,0-1.1c0.7-0.1,2.8-0.3,2.9-0.3
					c0,0,0,0,0,0c0,2.1,0,5.5,0,7.9c0,0.1,0,0.1,0.1,0.1l0.6,0c0,0.3,0,0.7,0,1.1c-0.2,0.1-1.2,0.3-2,0.3
					C161.3,265,161.2,264.8,161,264.5L161,264.5z M160.9,260.5c-0.2-0.1-0.4-0.2-0.7-0.2c-0.2,0-0.5,0.1-0.6,0.3
					c-0.2,0.3-0.3,0.7-0.3,1.5c0,0.5,0.1,0.9,0.2,1.2c0.1,0.2,0.3,0.3,0.6,0.3c0.2,0,0.5-0.1,0.8-0.2c0.1,0,0.1-0.1,0.1-0.2
					C160.9,262.4,160.9,261.4,160.9,260.5"/>
				<path class="st11" d="M170.6,264.9c-0.1,0.1-1.2,0.3-2,0.3c-0.2-0.1-0.4-0.3-0.6-0.7h-0.1c-1,0.6-1.2,0.7-1.7,0.7
					c-0.7,0-1.7-1-1.7-1.9c0-1,0-2,0-2.9l-0.6,0c0-0.4,0-0.7,0-1.1c0.5,0,2.3-0.1,2.5-0.1c0,0,0,0,0,0.1c0,0.9,0,2.1,0,3
					c0,0.4,0,0.8,0.2,1.1c0.1,0.3,0.3,0.3,0.5,0.3c0.2,0,0.5-0.1,0.7-0.3c0-0.9,0-2.2,0-3l-0.6,0c0-0.4,0-0.8,0-1.1
					c0.5,0,2.4-0.1,2.6-0.1c0,0,0,0,0,0.1c0,1.4,0,3,0,4.5c0,0.1,0,0.1,0,0.1l0.7,0C170.6,264.1,170.6,264.5,170.6,264.9"/>
				<path class="st11" d="M174.6,259.1c0.4,0,1.1,0.1,1.4,0.3c0,0.4-0.4,1.3-0.6,1.5c-0.2-0.1-0.8-0.4-1.3-0.4
					c-0.3,0-0.5,0.1-0.7,0.4c-0.2,0.3-0.2,0.7-0.2,1.3c0,0.6,0.2,1,0.4,1.3c0.2,0.3,0.6,0.3,0.8,0.3c0.5,0,1.1-0.2,1.4-0.4
					c0.1,0.3,0.2,0.7,0.2,1.1c-0.8,0.5-1.8,0.6-2.3,0.6c-1.5,0-2.7-1-2.7-2.6C171,260.6,172.4,259.1,174.6,259.1"/>
				<path class="st11" d="M177.7,264.7c-0.4-0.4-0.4-0.7-0.4-1c0-0.7,0-1.4,0-1.6c0-0.3,0-1.5,0-1.7h-0.9c0-0.4,0-0.8,0-1.1
					c0.3,0,0.6-0.1,0.8-0.1c0,0,0.1,0,0.1-0.1c0-0.3,0.1-0.8,0.1-1.1c0.6-0.3,1.8-0.7,1.8-0.7c0,0,0,0,0,0c0,0.3,0,1.5,0,1.8
					c0.6,0,1.3,0,1.9,0c0,0.4,0,0.8,0,1.2c-0.5,0-1.3,0-1.8,0c0,0.1,0,0.4,0,1.1v1.6c0,0.4,0.3,0.6,0.6,0.6c0.5,0,1-0.1,1.3-0.2
					c0.1,0.4,0.1,0.8,0.1,1.1c-0.8,0.3-1.7,0.5-2.6,0.5C178.3,265.1,178,265,177.7,264.7"/>
				<path class="st11" d="M184.6,264.4c0,1.2-0.7,2.4-1.9,3.1c-0.2-0.2-0.4-0.5-0.6-0.7c0.8-0.6,1-1.1,1-1.6c0-0.5-0.4-0.7-0.8-0.8
					c-0.1-0.9,0.4-1.5,1-1.5C184,262.9,184.6,263.6,184.6,264.4"/>
				<path class="st11" d="M189.7,264c-0.7-0.8-1.1-1.8-1.1-3.2c0-1.7,0.8-3.1,1.8-3.8c0.8-0.5,1.5-0.7,2.5-0.7
					c0.8,0,1.5,0.2,2.1,0.6c0.9,0.7,1.6,2,1.6,3.6c0,1.3-0.4,2.6-1.3,3.5c-0.8,0.8-1.7,1.1-2.9,1.1
					C191.3,265.1,190.3,264.7,189.7,264 M193.7,263.5c0.4-0.6,0.6-1.6,0.6-2.7c0-1.1-0.2-2-0.5-2.6c-0.3-0.5-0.6-0.8-1.1-0.8
					c-0.5,0-0.8,0.2-1.1,0.6c-0.3,0.5-0.6,1.4-0.6,2.7c0,1.3,0.2,2.2,0.6,2.7c0.3,0.4,0.7,0.6,1.1,0.6
					C193.1,264,193.4,263.9,193.7,263.5"/>
				<path class="st11" d="M204.1,264.9c-0.1,0.1-1.2,0.3-2,0.3c-0.2-0.1-0.4-0.3-0.6-0.7h-0.1c-1,0.6-1.2,0.7-1.7,0.7
					c-0.7,0-1.7-1-1.7-1.9c0-1,0-2,0-2.9l-0.5,0c0-0.4,0-0.7,0-1.1c0.5,0,2.3-0.1,2.5-0.1c0,0,0,0,0,0.1c0,0.9,0,2.1,0,3
					c0,0.4,0,0.8,0.1,1.1c0.2,0.3,0.3,0.3,0.5,0.3c0.2,0,0.5-0.1,0.7-0.3c0-0.9,0-2.2,0-3l-0.6,0c0-0.4,0-0.8,0-1.1
					c0.5,0,2.4-0.1,2.6-0.1c0,0,0,0,0,0.1c0,1.4,0,3,0,4.5c0,0.1,0,0.1,0.1,0.1l0.7,0C204.1,264.1,204.1,264.5,204.1,264.9"/>
				<path class="st11" d="M204.7,263.9l0.6,0c0,0,0.1,0,0.1-0.1v-3.3l-0.7,0c0-0.4,0-0.7,0-1.1c0.5-0.1,2.4-0.3,2.4-0.3c0,0,0,0,0,0
					c0,0.6,0.1,1.1,0.1,1.7l0.1,0c0.8-1.6,1-1.7,1.7-1.7c0.3,0,0.6,0.1,0.9,0.2c0,0.6-0.3,1.7-0.6,1.9c-0.1,0-0.5-0.1-0.8-0.1
					c-0.1,0-0.2,0-0.4,0.1c-0.2,0.2-0.4,0.4-0.6,0.9c-0.1,0.3-0.2,0.7-0.2,1.1v0.7l1,0c0,0.4,0,0.7,0,1.1h-1.9c-0.5,0-1.2,0-1.7,0
					C204.7,264.7,204.7,264.3,204.7,263.9"/>
				<path class="st11" d="M213.3,257.6c0-0.4,0-0.8,0-1.1c0.8,0,1.9,0,2.8,0c0.7,0,1.1,0,1.8,0.2c1.1,0.3,1.8,1.3,1.8,2.1
					c0,1.1-0.7,1.9-1.5,2.3v0.1c0.5,0.3,0.8,1,1.4,2.3c0.1,0.3,0.2,0.5,0.4,0.5l0.6,0.1c0,0.4,0,0.7,0,1.1c-0.2,0-0.7,0-0.9,0
					c-0.3,0-1.3,0-1.6,0c-0.3-0.6-0.9-2.1-1.2-2.7c-0.2-0.4-0.4-0.6-0.7-0.6c-0.1,0-0.2,0-0.3,0l0,2.1l0.7,0c0,0.4,0,0.7,0,1.1h-1.8
					h-1.6c0-0.4,0-0.7,0-1.1l0.6,0c0,0,0,0,0,0l0-6.2L213.3,257.6z M216,260.6c0,0,0.1,0,0.3,0c0.8,0,1.3-0.6,1.3-1.5
					c0-1-0.6-1.7-1.2-1.7c-0.2,0-0.3,0-0.4,0L216,260.6z"/>
				<path class="st11" d="M224,259.1c0.8,0,1.3,0.3,1.7,0.7c0.4,0.5,0.6,1.2,0.6,2c0,0.2-0.6,0.8-0.7,0.8c-0.3,0-1.6,0-2.7,0
					c0,0.4,0.2,0.7,0.3,0.9c0.3,0.3,0.6,0.3,0.9,0.3c0.5,0,1.3-0.2,1.7-0.4c0.1,0.3,0.2,0.8,0.2,1.1c-0.7,0.4-1.8,0.6-2.4,0.6
					c-1.6,0-2.9-0.9-2.9-2.7C220.9,260.5,222.2,259.1,224,259.1 M223.2,260.5c-0.2,0.3-0.2,0.5-0.2,1c0.4,0,1,0,1.4,0
					c0.1,0,0.1-0.1,0.1-0.1c0-0.3,0-0.6-0.1-0.8c-0.1-0.2-0.3-0.4-0.5-0.4C223.6,260.2,223.4,260.2,223.2,260.5"/>
				<path class="st11" d="M228.3,263.7c0,0,0,0.1,0.1,0.1c0.2,0.1,0.5,0.2,0.7,0.2c0.2,0,0.3,0,0.5-0.1c0.2-0.1,0.3-0.2,0.3-0.4
					c0-0.3-0.1-0.4-1-0.7c-1.1-0.3-1.6-0.9-1.6-1.7c0-0.8,0.5-1.4,1.1-1.6c0.4-0.2,0.9-0.4,1.8-0.4c0.7,0,1.2,0.1,1.5,0.2
					c0.1,0.6,0.1,1.2,0.2,1.7c-0.3,0.1-0.7,0.1-1.1,0.2l-0.2-0.7c0-0.1,0-0.1-0.1-0.1c-0.2-0.1-0.3-0.1-0.5-0.1
					c-0.1,0-0.3,0-0.5,0.1c-0.1,0.1-0.2,0.2-0.2,0.4c0,0.3,0.2,0.4,1.1,0.6c0.9,0.3,1.5,0.6,1.5,1.7c0,0.7-0.4,1.4-1.1,1.7
					c-0.4,0.2-1.1,0.3-1.8,0.3c-0.6,0-1.2-0.1-1.6-0.2c-0.1-0.6-0.1-1.2-0.2-1.8c0.3-0.1,0.7-0.2,1.1-0.2L228.3,263.7z"/>
				<path class="st11" d="M232.5,267l0.6-0.1c0,0,0,0,0-0.1l0-6.3l-0.8,0c0-0.4,0-0.7,0-1.1c0.6-0.1,2.4-0.4,2.5-0.4c0,0,0,0,0,0
					c0.1,0.2,0.1,0.5,0.1,0.7l0.1,0c1.2-0.7,1.4-0.7,1.9-0.7c1,0,1.9,1.2,1.9,2.6c0,0.6-0.1,1.2-0.4,1.8c-0.2,0.4-0.5,0.9-0.9,1.3
					c-0.2,0.2-0.8,0.4-1.3,0.4c-0.5,0-0.8-0.1-1.1-0.2l-0.1,0c0,0.7,0,1.3,0,2l1,0c0,0.4,0,0.7,0,1.1c-0.6,0-1.3,0-2,0
					c-0.5,0-1.1,0-1.6,0C232.4,267.8,232.4,267.4,232.5,267 M236.6,260.9c-0.1-0.2-0.3-0.3-0.5-0.3c-0.2,0-0.6,0.1-1,0.4
					c0,0.7,0,1.8,0,2.5c0,0.3,0.5,0.5,0.8,0.5c0.2,0,0.5-0.1,0.6-0.3c0.2-0.3,0.3-0.7,0.3-1.4C236.8,261.5,236.7,261.1,236.6,260.9"
					/>
				<path class="st11" d="M240.6,264.5c-0.6-0.5-0.9-1.2-0.9-2.2c0-1,0.4-2,1.2-2.6c0.5-0.4,1.3-0.6,2-0.6c0.7,0,1.2,0.2,1.7,0.5
					c0.6,0.4,1.1,1.3,1.1,2.4c0,1.2-0.6,2.1-1.3,2.6c-0.5,0.3-1.1,0.5-1.8,0.5C241.8,265.1,241,264.9,240.6,264.5 M243.2,263.8
					c0.2-0.3,0.3-0.9,0.3-1.8c0-0.8-0.1-1.2-0.2-1.5c-0.1-0.3-0.4-0.4-0.6-0.4c-0.2,0-0.4,0.1-0.6,0.3c-0.2,0.3-0.3,0.8-0.3,1.6
					c0,1,0.1,1.4,0.3,1.7c0.2,0.3,0.3,0.4,0.6,0.4C242.8,264.1,243,264,243.2,263.8"/>
				<path class="st11" d="M246.3,260.5c0-0.4,0-0.7,0-1.1c0.6-0.1,2.4-0.4,2.5-0.4c0,0,0,0,0,0c0.1,0.3,0.1,0.6,0.2,0.8l0.1,0
					c1.2-0.8,1.4-0.9,2-0.9c0.5,0,1,0.5,1.3,0.9c0.2,0.4,0.3,0.8,0.3,1.2c0,0.8,0,1.8-0.1,2.7l0.6,0c0,0.4,0,0.8,0,1.1h-1.6
					c-0.5,0-1.1,0-1.5,0c0-0.3,0-0.7,0-1.1l0.5,0c0,0,0,0,0-0.1c0-0.5,0-1.3,0-1.8c0-0.6,0-0.9-0.1-1.1c-0.1-0.3-0.3-0.3-0.5-0.3
					c-0.3,0-0.7,0.2-1,0.5c0,0.8,0,2,0,2.8l0.5,0c0,0.3,0,0.7,0,1.1H248c-0.5,0-1.2,0-1.6,0c0-0.3,0-0.7,0-1.1l0.6,0c0,0,0,0,0-0.1
					v-3.2L246.3,260.5z"/>
				<path class="st11" d="M255.1,263.7c0,0,0,0.1,0.1,0.1c0.2,0.1,0.5,0.2,0.7,0.2c0.2,0,0.3,0,0.5-0.1c0.2-0.1,0.3-0.2,0.3-0.4
					c0-0.3-0.2-0.4-1-0.7c-1.1-0.3-1.6-0.9-1.6-1.7c0-0.8,0.5-1.4,1.1-1.6c0.4-0.2,0.9-0.4,1.8-0.4c0.7,0,1.3,0.1,1.5,0.2
					c0.1,0.6,0.1,1.2,0.2,1.7c-0.3,0.1-0.7,0.1-1.1,0.2l-0.2-0.7c0-0.1,0-0.1-0.1-0.1c-0.2-0.1-0.3-0.1-0.5-0.1
					c-0.1,0-0.3,0-0.4,0.1c-0.1,0.1-0.2,0.2-0.2,0.4c0,0.3,0.2,0.4,1.1,0.6c0.9,0.3,1.5,0.6,1.5,1.7c0,0.7-0.4,1.4-1.1,1.7
					c-0.4,0.2-1.1,0.3-1.8,0.3c-0.6,0-1.2-0.1-1.6-0.2c-0.1-0.6-0.1-1.2-0.2-1.8c0.4-0.1,0.7-0.2,1.1-0.2L255.1,263.7z"/>
				<path class="st11" d="M259.2,260.5c0-0.4,0-0.8,0-1.1c0.7-0.1,2.6-0.4,2.7-0.4c0,0,0,0,0,0c0,1.4,0,3.4,0,4.8l0.7,0v1.1H261
					c-0.5,0-1.2,0-1.7,0c0-0.3,0-0.7,0-1.1l0.6,0c0,0,0,0,0-0.1v-3.2L259.2,260.5z M262,257.1c0,0.7-0.5,1.2-1.2,1.2
					c-0.5,0-1.1-0.5-1.1-1.2c0-0.5,0.5-1.1,1.1-1.1C261.6,256.1,262,256.6,262,257.1"/>
				<path class="st11" d="M263.6,263.5c0-1.9,0-4.3,0-6.2l-0.8,0c0-0.4,0-0.8,0-1.1c0.7-0.1,2.7-0.3,2.8-0.3c0,0,0,0,0,0
					c0,1,0,2.5,0,3.9l0,0c1.2-0.6,1.4-0.6,1.8-0.6c1,0,1.9,1.2,1.9,2.4c0,0.7-0.1,1.3-0.3,1.9c-0.2,0.5-0.5,0.9-1,1.3
					c-0.3,0.3-1,0.4-1.6,0.4c-0.4,0-0.9-0.1-1.3-0.4l-0.4,0.5c-0.3-0.1-0.7-0.1-1.1-0.2C263.6,264.7,263.6,264,263.6,263.5
					 M267.1,260.9c-0.1-0.2-0.3-0.4-0.5-0.4c-0.3,0-0.6,0.1-0.9,0.4c0,0.8,0,1.8,0,2.6c0,0.3,0.5,0.5,0.7,0.5c0.3,0,0.5-0.1,0.6-0.4
					c0.2-0.3,0.3-0.8,0.3-1.5C267.3,261.5,267.2,261.1,267.1,260.9"/>
				<path class="st11" d="M270,260.5c0-0.4,0-0.8,0-1.1c0.7-0.1,2.7-0.4,2.7-0.4c0,0,0,0,0,0c0,1.4,0,3.4,0,4.8l0.7,0v1.1h-1.7
					c-0.5,0-1.2,0-1.7,0c0-0.3,0-0.7,0-1.1l0.7,0c0,0,0.1,0,0.1-0.1v-3.2L270,260.5z M272.8,257.1c0,0.7-0.5,1.2-1.2,1.2
					c-0.5,0-1.1-0.5-1.1-1.2c0-0.5,0.5-1.1,1.1-1.1C272.4,256.1,272.8,256.6,272.8,257.1"/>
				<path class="st11" d="M273.9,263.9l0.7,0c0,0,0,0,0,0v-6.5l-0.8,0c0-0.4,0-0.8,0-1.1c0.7-0.1,2.7-0.3,2.8-0.3c0,0,0,0,0,0.1
					c0,2.2,0,5.6-0.1,8l0.7,0c0,0.3,0,0.7,0,1.1h-1.7c-0.5,0-1.2,0-1.7,0C273.9,264.7,273.9,264.3,273.9,263.9"/>
				<path class="st11" d="M277.7,260.5c0-0.4,0-0.8,0-1.1c0.7-0.1,2.7-0.4,2.8-0.4c0,0,0,0,0,0c0,1.4,0,3.4,0,4.8l0.7,0v1.1h-1.7
					c-0.5,0-1.2,0-1.7,0c0-0.3,0-0.7,0-1.1l0.6,0c0,0,0.1,0,0.1-0.1v-3.2L277.7,260.5z M280.5,257.1c0,0.7-0.5,1.2-1.2,1.2
					c-0.5,0-1.1-0.5-1.1-1.2c0-0.5,0.5-1.1,1.1-1.1C280.1,256.1,280.5,256.6,280.5,257.1"/>
				<path class="st11" d="M282.8,264.7c-0.4-0.4-0.4-0.7-0.4-1c0-0.7,0-1.4,0-1.6c0-0.3,0-1.5,0-1.7h-0.9c0-0.4,0-0.8,0-1.1
					c0.3,0,0.6-0.1,0.8-0.1c0.1,0,0.1,0,0.1-0.1c0-0.3,0.1-0.8,0.1-1.1c0.6-0.3,1.8-0.7,1.8-0.7c0,0,0,0,0,0c0,0.3,0,1.5,0,1.8
					c0.6,0,1.3,0,1.9,0c0,0.4,0,0.8,0,1.2c-0.5,0-1.3,0-1.8,0c0,0.1,0,0.4,0,1.1v1.6c0,0.4,0.3,0.6,0.6,0.6c0.5,0,1-0.1,1.3-0.2
					c0.1,0.4,0.1,0.8,0.1,1.1c-0.8,0.3-1.7,0.5-2.6,0.5C283.4,265.1,283.1,265,282.8,264.7"/>
				<path class="st11" d="M292.5,260.3c-0.2,0.5-0.7,1.8-1,2.8c-0.3,0.8-1.2,2.9-1.8,4c-0.3,0.5-0.7,1.1-1,1.2
					c-0.4,0-1.5-0.8-1.5-1.1c0.2-0.1,0.6-0.4,0.9-0.7c0.4-0.4,0.7-0.8,0.9-1.3c-0.4-1-0.7-1.8-1-2.7c-0.3-0.8-0.6-1.6-0.8-2.2
					c0,0,0,0-0.1-0.1l-0.5,0c0-0.4,0-0.8,0-1.1h1.5h1.8c0,0.3,0,0.8,0,1.1l-0.6,0c0.1,0.3,0.2,0.7,0.4,1.4c0.1,0.5,0.3,1,0.5,1.5
					h0.1c0.1-0.4,0.3-0.9,0.4-1.4c0.1-0.5,0.2-0.9,0.3-1.5c0,0,0-0.1,0-0.1l-0.4,0c0-0.4,0-0.8,0-1.1h1.4h1c0,0.3,0,0.7,0,1.1
					L292.5,260.3z"/>
			</g>
		</g>
	</g>
</g>
</svg>
