<?xml version="1.0" standalone="no"?>
<!DOCTYPE svg PUBLIC "-//W3C//DTD SVG 20010904//EN"
 "http://www.w3.org/TR/2001/REC-SVG-20010904/DTD/svg10.dtd">
<svg version="1.0" xmlns="http://www.w3.org/2000/svg"
 width="512.000000pt" height="512.000000pt" viewBox="0 0 512.000000 512.000000"
 preserveAspectRatio="xMidYMid meet">

<g transform="translate(0.000000,512.000000) scale(0.100000,-0.100000)"
fill="#000000" stroke="none">
<path d="M2361 5110 c-442 -37 -865 -184 -1222 -426 -164 -110 -242 -175 -394
-328 -401 -404 -644 -898 -721 -1466 -21 -152 -23 -480 -5 -625 51 -406 189
-783 406 -1110 357 -539 896 -922 1515 -1075 241 -59 364 -74 615 -75 242 0
336 9 537 51 629 131 1200 512 1572 1048 420 605 556 1352 376 2076 -181 727
-679 1344 -1354 1675 -246 120 -524 205 -786 239 -148 19 -406 27 -539 16z
m286 -371 c434 -48 785 -351 900 -775 l27 -99 4 -442 3 -443 210 0 210 0 -3
-792 -4 -793 -27 -99 c-93 -342 -343 -606 -672 -709 -144 -45 -219 -49 -790
-45 l-530 4 -95 26 c-363 98 -629 364 -727 724 l-27 99 -4 793 -3 792 190 0
190 0 4 453 c3 431 5 456 26 532 26 94 93 240 148 322 163 246 463 425 758
452 50 5 96 9 103 10 7 0 56 -4 109 -10z"/>
<path d="M2403 4109 c-134 -42 -250 -169 -282 -309 -6 -27 -11 -204 -11 -432
l0 -388 430 0 430 0 0 358 c0 196 -5 388 -10 425 -38 263 -302 427 -557 346z"/>
<path d="M2511 2359 c-29 -5 -73 -18 -97 -28 -62 -28 -139 -104 -171 -170 -24
-48 -28 -68 -28 -146 0 -76 4 -99 26 -145 14 -31 40 -72 57 -92 l32 -35 -45
-284 c-25 -156 -45 -287 -45 -290 0 -8 625 -23 637 -16 6 4 -4 93 -23 214 -19
114 -39 245 -45 290 l-12 82 30 38 c44 55 70 111 82 175 43 234 -163 445 -398
407z"/>
</g>
</svg>
